<svg xmlns="http://www.w3.org/2000/svg" xmlns:xlink="http://www.w3.org/1999/xlink" fill="none" version="1.1" width="333.625" height="262.716796875" viewBox="0 0 333.625 262.716796875"><defs><linearGradient x1="0.5" y1="0" x2="0.5" y2="1" id="master_svg0_2484_10332"><stop offset="0%" stop-color="#EDF1F9" stop-opacity="1"/><stop offset="42.85714328289032%" stop-color="#DAE0EC" stop-opacity="0"/></linearGradient><filter id="master_svg1_2484_10365" filterUnits="objectBoundingBox" color-interpolation-filters="sRGB" x="-57.56666564941406" y="-43.17499923706055" width="230.3877716064453" height="195.9496841430664"><feFlood flood-opacity="0" result="BackgroundImageFix"/><feColorMatrix in="SourceAlpha" type="matrix" values="0 0 0 0 0 0 0 0 0 0 0 0 0 0 0 0 0 0 127 0"/><feOffset dy="14.391666412353516" dx="0"/><feGaussianBlur stdDeviation="14.391666412353516"/><feColorMatrix type="matrix" values="0 0 0 0 0.39770832657814026 0 0 0 0 0.4774896204471588 0 0 0 0 0.574999988079071 0 0 0 0.27000001072883606 0"/><feBlend mode="normal" in2="BackgroundImageFix" result="effect1_dropShadow"/><feBlend mode="normal" in="SourceGraphic" in2="effect1_dropShadow" result="shape"/></filter><linearGradient x1="0.49967411160469055" y1="-0.023130953311920166" x2="0.49967411160469055" y2="1.0107805728912354" id="master_svg2_2484_10367"><stop offset="0%" stop-color="#FDFEFF" stop-opacity="1"/><stop offset="99.6399998664856%" stop-color="#ECF0F5" stop-opacity="1"/><stop offset="100%" stop-color="#ECF0F5" stop-opacity="1"/></linearGradient><filter id="master_svg3_2484_10377" filterUnits="objectBoundingBox" color-interpolation-filters="sRGB" x="-57.56666564941406" y="-43.17499923706055" width="230.3877716064453" height="195.9496841430664"><feFlood flood-opacity="0" result="BackgroundImageFix"/><feColorMatrix in="SourceAlpha" type="matrix" values="0 0 0 0 0 0 0 0 0 0 0 0 0 0 0 0 0 0 127 0"/><feOffset dy="14.391666412353516" dx="0"/><feGaussianBlur stdDeviation="14.391666412353516"/><feColorMatrix type="matrix" values="0 0 0 0 0.39770832657814026 0 0 0 0 0.4774896204471588 0 0 0 0 0.574999988079071 0 0 0 0.27000001072883606 0"/><feBlend mode="normal" in2="BackgroundImageFix" result="effect1_dropShadow"/><feBlend mode="normal" in="SourceGraphic" in2="effect1_dropShadow" result="shape"/></filter><linearGradient x1="0.49967411160469055" y1="-0.023130953311920166" x2="0.49967411160469055" y2="1.0107805728912354" id="master_svg4_2484_10367"><stop offset="0%" stop-color="#FDFEFF" stop-opacity="1"/><stop offset="99.6399998664856%" stop-color="#ECF0F5" stop-opacity="1"/><stop offset="100%" stop-color="#ECF0F5" stop-opacity="1"/></linearGradient><filter id="master_svg5_2484_10382" filterUnits="objectBoundingBox" color-interpolation-filters="sRGB" x="-57.56666564941406" y="-43.17499923706055" width="230.47377014160156" height="195.9496841430664"><feFlood flood-opacity="0" result="BackgroundImageFix"/><feColorMatrix in="SourceAlpha" type="matrix" values="0 0 0 0 0 0 0 0 0 0 0 0 0 0 0 0 0 0 127 0"/><feOffset dy="14.391666412353516" dx="0"/><feGaussianBlur stdDeviation="14.391666412353516"/><feColorMatrix type="matrix" values="0 0 0 0 0.39770832657814026 0 0 0 0 0.4774896204471588 0 0 0 0 0.574999988079071 0 0 0 0.27000001072883606 0"/><feBlend mode="normal" in2="BackgroundImageFix" result="effect1_dropShadow"/><feBlend mode="normal" in="SourceGraphic" in2="effect1_dropShadow" result="shape"/></filter><linearGradient x1="0.49967411160469055" y1="-0.023130953311920166" x2="0.49967411160469055" y2="1.0107805728912354" id="master_svg6_2484_10367"><stop offset="0%" stop-color="#FDFEFF" stop-opacity="1"/><stop offset="99.6399998664856%" stop-color="#ECF0F5" stop-opacity="1"/><stop offset="100%" stop-color="#ECF0F5" stop-opacity="1"/></linearGradient><linearGradient x1="-0.00045798387145623565" y1="0.5001086592674255" x2="1.0001822710037231" y2="0.5001086592674255" id="master_svg7_2484_10356"><stop offset="0%" stop-color="#B0BACC" stop-opacity="1"/><stop offset="100%" stop-color="#707681" stop-opacity="1"/></linearGradient></defs><g><g><ellipse cx="166.8125" cy="176.3668441772461" rx="166.8125" ry="86.3499984741211" fill="url(#master_svg0_2484_10332)" fill-opacity="1"/></g><g><path d="M51.425126875,196.9077644140625L56.822006875,196.9077644140625L56.822006875,210.5498244140625L52.917446875,210.5498244140625L52.917446875,212.1716244140625L51.425126875,212.1716244140625L51.425126875,196.9077644140625ZM67.901996875,202.48862441406249Q66.736696875,207.1563244140625,64.447096875,209.8889244140625Q66.838896875,211.8650244140625,70.579996875,212.8667244140625Q70.232396875,213.2823244140625,69.455596875,214.3522244140625Q65.878096875,213.1938244140625,63.343196875000004,211.0336244140625Q61.012796875,213.1665244140625,57.149086875,214.78832441406252Q56.617576875,214.0319244140625,56.147396875,213.4254244140625Q59.867996875,212.0013244140625,62.177996875,209.8684244140625Q59.847496875,207.1495244140625,58.641406875,202.5499244140625L60.051996875,202.1411244140625Q61.278496875,206.4954244140625,63.302296874999996,208.7645244140625Q65.407896875,206.3182244140625,66.348296875,202.1411244140625L67.901996875,202.48862441406249ZM65.183096875,194.7272044140625L66.675396875,194.7272044140625L66.675396875,197.7799844140625L70.375496875,197.7799844140625L70.375496875,199.2109244140625L66.675396875,199.2109244140625L66.675396875,201.2688244140625L65.183096875,201.2688244140625L65.183096875,199.2109244140625L61.462496875,199.2109244140625L61.462496875,201.2688244140625L59.970196875,201.2688244140625L59.970196875,199.2109244140625L57.476176875,199.2109244140625L57.476176875,197.7799844140625L59.970196875,197.7799844140625L59.970196875,194.7272044140625L61.462496875,194.7272044140625L61.462496875,197.7799844140625L65.183096875,197.7799844140625L65.183096875,194.7272044140625ZM55.329686875,198.3387544140625L52.917446875,198.3387544140625L52.917446875,209.1188244140625L55.329686875,209.1188244140625L55.329686875,198.3387544140625ZM76.344796875,211.7832244140625Q81.448696875,208.7713244140625,84.719496875,204.0491244140625L79.513396875,204.0491244140625L79.513396875,202.5772244140625L80.985296875,197.7799844140625L82.538896875,198.1070644140625L81.189696875,202.5772244140625L86.422996875,202.5772244140625L86.422996875,197.0713044140625L78.981896875,197.0713044140625L78.981896875,195.5994244140625L91.247496875,195.5994244140625L91.247496875,197.0713044140625L88.037996875,197.0713044140625L88.037996875,202.5772244140625L91.67679687500001,202.5772244140625L91.67679687500001,204.0491244140625L88.037996875,204.0491244140625L88.037996875,211.63332441406249Q88.037996875,214.1818244140625,85.809796875,214.2227244140625Q84.52189687500001,214.2227244140625,82.988696875,214.2023244140625Q82.886496875,213.4595244140625,82.661596875,212.6077244140625Q84.29699687499999,212.6077244140625,85.319096875,212.6077244140625Q86.422996875,212.6077244140625,86.422996875,211.2653244140625L86.422996875,204.3148244140625Q83.390696875,209.2347244140625,77.407796875,213.0438244140625Q76.978496875,212.4578244140625,76.344796875,211.7832244140625ZM72.521996875,196.4716544140625L77.816696875,196.4716544140625L77.816696875,209.2415244140625L73.993896875,209.2415244140625L73.993896875,210.8633244140625L72.521996875,210.8633244140625L72.521996875,196.4716544140625ZM76.344796875,207.8105244140625L76.344796875,197.9026344140625L73.993896875,197.9026344140625L73.993896875,207.8105244140625L76.344796875,207.8105244140625ZM98.300296875,209.1188244140625L96.576296875,214.5702244140625L95.145296875,214.5702244140625L96.399096875,209.1188244140625L98.300296875,209.1188244140625ZM118.804296875,200.3080244140625Q121.216496875,197.7050244140625,122.749696875,194.2910944140625L124.344296875,194.6590644140625Q123.894496875,195.6062444140625,123.403896875,196.4716544140625L132.705296875,196.4716544140625L132.705296875,197.8004244140625L131.294796875,200.8327244140625Q130.538396875,200.4443244140625,129.843396875,200.1172244140625L130.90639687499998,197.8617544140625L122.586196875,197.8617544140625Q121.441396875,199.7561244140625,120.112596875,201.2688244140625Q119.540196875,200.8396244140625,118.804296875,200.3080244140625ZM118.170596875,207.8105244140625L119.724196875,207.8105244140625L119.724196875,211.2790244140625Q119.724196875,212.6077244140625,121.114296875,212.6077244140625L125.529896875,212.6077244140625Q127.042696875,212.6077244140625,127.308496875,211.4357244140625Q127.574196875,210.4476244140625,127.737796875,209.1188244140625Q128.473696875,209.4255244140625,129.311796875,209.7117244140625Q129.046096875,211.1699244140625,128.821196875,212.0149244140625Q128.330596875,214.0592244140625,125.877496875,214.0592244140625L120.807696875,214.0592244140625Q118.170596875,214.0592244140625,118.170596875,211.4698244140625L118.170596875,207.8105244140625ZM117.741296875,194.2910944140625L119.233596875,194.9861444140625Q118.409096875,196.4035044140625,117.557296875,197.7050244140625L117.557296875,206.9383244140625L116.003596875,206.9383244140625L116.003596875,199.9469244140625Q115.158696875,201.0985244140625,114.286496875,202.1411244140625Q113.795796875,201.6164244140625,113.14169687500001,201.0235244140625Q115.840096875,198.0389244140625,117.741296875,194.2910944140625ZM125.693496875,199.0883244140625L127.247096875,199.0883244140625L127.247096875,204.2194244140625Q127.247096875,206.7271244140625,124.855296875,206.7271244140625Q124.098996875,206.7271244140625,122.811096875,206.7066244140625Q122.708896875,206.0116244140625,122.504396875,205.0507244140625Q123.608296875,205.1938244140625,124.425996875,205.1938244140625Q125.693496875,205.1938244140625,125.693496875,203.7560244140625L125.693496875,199.0883244140625ZM128.20789687500002,202.2433244140625L129.250496875,201.2688244140625Q131.294796875,202.9043244140625,133.400396875,204.9077244140625L132.25559687499998,206.0661244140625Q130.19089687500002,203.9196244140625,128.20789687500002,202.2433244140625ZM122.627096875,200.8327244140625L123.853596875,201.7527244140625Q122.115996875,203.8378244140625,119.846896875,206.0661244140625Q119.376696875,205.5754244140625,118.702096875,204.9826244140625Q120.746396875,203.1291244140625,122.627096875,200.8327244140625ZM129.005196875,207.8173244140625L130.231796875,206.9383244140625Q132.153396875,209.1120244140625,133.666096875,211.1427244140625L132.35779687500002,212.1716244140625Q130.70199687500002,209.8275244140625,129.005196875,207.8173244140625ZM115.492596875,207.8105244140625L116.984896875,208.3216244140625Q116.003596875,210.9859244140625,114.981496875,213.0438244140625Q114.327296875,212.7576244140625,113.468696875,212.4510244140625Q114.756596875,210.1478244140625,115.492596875,207.8105244140625ZM121.441396875,208.3557244140625L122.483996875,207.3744244140625Q124.180696875,208.5056244140625,125.652596875,209.7389244140625L124.466896875,210.8633244140625Q123.056396875,209.5277244140625,121.441396875,208.3557244140625ZM140.67799687500002,197.7799844140625L147.315096875,197.7799844140625Q146.681296875,196.3898744140625,145.768196875,194.9657044140625L147.19919687499998,194.2910944140625Q148.159996875,195.7357144140625,148.834596875,197.0236044140625L147.36279687500002,197.7799844140625L154.435796875,197.7799844140625L154.435796875,199.2518244140625L145.318496875,199.2518244140625L145.318496875,202.5772244140625L152.984796875,202.5772244140625Q152.759796875,208.7236244140625,152.53479687499998,211.0609244140625Q152.28979687499998,213.8479244140625,149.67279687500002,213.8275244140625Q148.159996875,213.8275244140625,146.361096875,213.7457244140625Q146.21799687499998,212.8053244140625,146.033996875,211.9468244140625Q147.914696875,212.1716244140625,149.447896875,212.1716244140625Q150.776796875,212.1716244140625,150.939796875,210.6452244140625Q151.16479687499998,208.2534244140625,151.328796875,204.0082244140625L145.297996875,204.0082244140625Q145.209496875,207.4017244140625,144.500796875,209.3778244140625Q143.621696875,211.9127244140625,141.127696875,214.3522244140625Q140.432696875,213.5958244140625,139.819396875,213.1461244140625Q142.190796875,210.8565244140625,142.967596875,208.5192244140625Q143.642196875,206.65212441406248,143.642196875,202.6794244140625L143.642196875,199.2518244140625L140.67799687500002,199.2518244140625L140.67799687500002,197.7799844140625ZM141.475296875,207.3744244140625Q141.536596875,208.3148244140625,141.65919687500002,209.1938244140625Q140.146496875,210.2296244140625,138.327096875,211.6674244140625Q137.918196875,211.9876244140625,137.304996875,212.6077244140625L136.200996875,211.4902244140625Q136.936996875,210.6997244140625,136.936996875,209.4459244140625L136.936996875,202.7612244140625L134.320296875,202.7612244140625L134.320296875,201.2688244140625L138.53149687500002,201.2688244140625L138.53149687500002,209.6572244140625Q140.00339687500002,208.5669244140625,141.475296875,207.3744244140625ZM136.384996875,194.7272044140625Q138.06129687499998,196.2944844140625,139.533196875,197.8821944140625L138.102196875,199.0883244140625Q136.752996875,197.3983844140625,135.137996875,195.8106644140625L136.384996875,194.7272044140625ZM160.875796875,200.8327244140625L169.542796875,200.8327244140625L169.542796875,208.8872244140625L162.346796875,208.8872244140625L162.346796875,209.9911244140625L160.875796875,209.9911244140625L160.875796875,200.8327244140625ZM162.592796875,197.1326344140625L162.592796875,195.5994244140625L174.28579687500002,195.5994244140625L174.28579687500002,211.2449244140625Q174.28579687500002,214.1818244140625,171.60779687500002,214.1818244140625Q169.86979687500002,214.1818244140625,168.254796875,214.2636244140625Q168.173796875,213.6503244140625,167.927796875,212.6077244140625Q169.62479687500002,212.6077244140625,171.198796875,212.6077244140625Q172.690796875,212.6077244140625,172.690796875,211.0336244140625L172.690796875,197.1326344140625L162.592796875,197.1326344140625ZM168.07079687499998,202.3455244140625L162.346796875,202.3455244140625L162.346796875,207.3744244140625L168.07079687499998,207.3744244140625L168.07079687499998,202.3455244140625ZM156.193796875,198.6522244140625L157.788796875,198.6522244140625L157.788796875,214.3522244140625L156.193796875,214.3522244140625L156.193796875,198.6522244140625ZM157.215796875,195.3336744140625L158.38179687500002,194.2910944140625Q159.505796875,195.4290744140625,161.34579687500002,197.4869744140625L160.016796875,198.6522244140625Q158.258796875,196.4716544140625,157.215796875,195.3336744140625ZM176.88179687500002,197.7799844140625L178.946796875,197.7799844140625Q179.702796875,195.8651844140625,180.193796875,194.2910944140625L181.910796875,194.7817144140625Q181.270796875,196.3966944140625,180.663796875,197.7799844140625L184.752796875,197.7799844140625L184.752796875,214.3522244140625L183.116796875,214.3522244140625L183.116796875,212.3965244140625L178.517796875,212.3965244140625L178.517796875,214.3522244140625L176.88179687500002,214.3522244140625L176.88179687500002,197.7799844140625ZM185.058796875,202.2569244140625Q186.980796875,199.0610244140625,188.309796875,194.2910944140625L190.026796875,194.7203944140625Q189.508796875,196.3489944140625,188.963796875,197.7799844140625L195.545796875,197.7799844140625Q195.300796875,208.3148244140625,195.137796875,211.0473244140625Q194.993796875,214.2636244140625,191.764796875,214.2636244140625Q189.903796875,214.2636244140625,187.982796875,214.3522244140625Q187.859796875,213.3300244140625,187.655796875,212.5328244140625L187.716796875,212.5328244140625Q189.760796875,212.6077244140625,191.457796875,212.6077244140625Q193.317796875,212.6077244140625,193.460796875,210.6384244140625Q193.685796875,207.5788244140625,193.787796875,199.3132244140625L188.309796875,199.3132244140625Q187.423796875,201.4119244140625,186.469796875,203.0133244140625Q185.917796875,202.6249244140625,185.058796875,202.2569244140625ZM178.517796875,210.8633244140625L183.116796875,210.8633244140625L183.116796875,205.7935244140625L178.517796875,205.7935244140625L178.517796875,210.8633244140625ZM183.116796875,199.3132244140625L178.517796875,199.3132244140625L178.517796875,204.3216244140625L183.116796875,204.3216244140625L183.116796875,199.3132244140625ZM186.857796875,203.4971244140625L188.104796875,202.5772244140625Q190.373796875,205.2347244140625,191.723796875,207.1836244140625L190.210796875,208.2466244140625Q188.758796875,205.8889244140625,186.857796875,203.4971244140625ZM199.675796875,199.5244244140625L205.481796875,199.5244244140625Q205.746796875,198.4205244140625,206.094796875,196.6760744140625L197.365796875,196.6760744140625L197.365796875,195.1633144140625L216.949796875,195.1633144140625L216.949796875,196.6760744140625L207.913796875,196.6760744140625Q207.484796875,198.3319344140625,207.096796875,199.5244244140625L214.802796875,199.5244244140625L214.802796875,209.1188244140625L213.147796875,209.1188244140625L213.147796875,201.0372244140625L201.331796875,201.0372244140625L201.331796875,209.1188244140625L199.675796875,209.1188244140625L199.675796875,199.5244244140625ZM196.976796875,212.8462244140625Q202.189796875,211.7083244140625,204.152796875,210.0456244140625Q206.400796875,208.2262244140625,206.400796875,204.4102244140625L206.400796875,202.1411244140625L208.056796875,202.1411244140625L208.056796875,204.47152441406251Q208.056796875,206.5090244140625,207.525796875,208.0763244140625Q212.676796875,210.4272244140625,216.908796875,212.9280244140625L215.865796875,214.3522244140625Q211.940796875,211.8854244140625,206.912796875,209.4664244140625Q206.196796875,210.6861244140625,205.051796875,211.5311244140625Q202.659796875,213.3096244140625,198.039796875,214.3522244140625Q197.671796875,213.7253244140625,196.976796875,212.8462244140625ZM219.279796875,199.9605244140625L225.760796875,199.9605244140625Q226.353796875,198.3183044140625,226.721796875,197.1121844140625L218.196796875,197.1121844140625L218.196796875,195.5994244140625L237.862796875,195.5994244140625L237.862796875,197.1121844140625L228.554796875,197.1121844140625Q228.104796875,198.2910544140625,227.429796875,199.9605244140625L236.717796875,199.9605244140625L236.717796875,214.3522244140625L235.143796875,214.3522244140625L235.143796875,213.0847244140625L220.853796875,213.0847244140625L220.853796875,214.3522244140625L219.279796875,214.3522244140625L219.279796875,199.9605244140625ZM235.143796875,201.3097244140625L231.852796875,201.3097244140625L231.852796875,211.7355244140625L235.143796875,211.7355244140625L235.143796875,201.3097244140625ZM220.853796875,211.7355244140625L224.145796875,211.7355244140625L224.145796875,201.3097244140625L220.853796875,201.3097244140625L220.853796875,211.7355244140625ZM225.617796875,211.7355244140625L230.380796875,211.7355244140625L230.380796875,209.1188244140625L225.617796875,209.1188244140625L225.617796875,211.7355244140625ZM225.617796875,207.8105244140625L230.380796875,207.8105244140625L230.380796875,205.1938244140625L225.617796875,205.1938244140625L225.617796875,207.8105244140625ZM225.617796875,203.8855244140625L230.380796875,203.8855244140625L230.380796875,201.3097244140625L225.617796875,201.3097244140625L225.617796875,203.8855244140625ZM255.197796875,204.7577244140625L255.197796875,203.6947244140625L249.821796875,203.6947244140625L249.821796875,211.7355244140625L255.811796875,211.7355244140625L255.811796875,206.0661244140625L257.528796875,206.0661244140625L257.528796875,213.9161244140625L255.811796875,213.9161244140625L255.811796875,213.2892244140625L240.438796875,213.2892244140625L240.438796875,206.0661244140625L242.175796875,206.0661244140625L242.175796875,211.7355244140625L248.042796875,211.7355244140625L248.042796875,203.6947244140625L240.990796875,203.6947244140625L240.990796875,196.03554441406249L242.727796875,196.03554441406249L242.727796875,202.1411244140625L248.042796875,202.1411244140625L248.042796875,194.2910944140625L249.821796875,194.2910944140625L249.821796875,202.1411244140625L255.197796875,202.1411244140625L255.197796875,196.03554441406249L256.935796875,196.03554441406249L256.935796875,204.7577244140625L255.197796875,204.7577244140625ZM268.03579687499996,204.7577244140625L278.441796875,204.7577244140625L278.441796875,214.78832441406252L276.887796875,214.78832441406252L276.887796875,213.5208244140625L269.589796875,213.5208244140625L269.589796875,214.78832441406252L268.03579687499996,214.78832441406252L268.03579687499996,204.7577244140625ZM266.666796875,201.7050244140625L269.67179687500004,201.7050244140625L269.67179687500004,198.7340244140625L267.279796875,198.7340244140625L267.279796875,197.3438744140625L269.67179687500004,197.3438744140625L269.67179687500004,194.2910944140625L271.22479687500004,194.2910944140625L271.22479687500004,197.3438744140625L274.94579687500004,197.3438744140625L274.94579687500004,194.2910944140625L276.499796875,194.2910944140625L276.499796875,197.3438744140625L279.38179687499996,197.3438744140625L279.38179687499996,198.7340244140625L276.499796875,198.7340244140625L276.499796875,201.7050244140625L279.97479687500004,201.7050244140625L279.97479687500004,203.0951244140625L266.666796875,203.0951244140625L266.666796875,201.7050244140625ZM266.257796875,209.1188244140625Q266.441796875,210.0388244140625,266.60479687500003,210.65212441406248Q264.683796875,212.5123244140625,263.558796875,213.6844244140625Q263.395796875,213.8956244140625,262.986796875,214.46122441406249L261.86279687499996,213.1529244140625Q262.43479687499996,212.4987244140625,262.43479687499996,211.2381244140625L262.43479687499996,206.6248244140625L259.817796875,206.6248244140625L259.817796875,205.1938244140625L262.43479687499996,205.1938244140625L262.43479687499996,202.6998244140625L261.555796875,202.6998244140625L261.555796875,201.2688244140625L265.930796875,201.2688244140625L265.930796875,202.6998244140625L263.92679687500004,202.6998244140625L263.92679687500004,205.1938244140625L266.48279687499996,205.1938244140625L266.48279687499996,206.6248244140625L263.92679687500004,206.6248244140625L263.92679687500004,211.3403244140625Q265.214796875,210.1546244140625,266.257796875,209.1188244140625ZM259.69579687500004,201.5278244140625Q261.45379687499997,198.5840244140625,262.332796875,194.2910944140625L263.865796875,194.6181744140625Q263.51179687499996,196.0423544140625,263.061796875,197.3438744140625L266.563796875,197.3438744140625L266.563796875,198.7748244140625L262.536796875,198.7748244140625Q261.678796875,201.0849244140625,260.533796875,203.0133244140625Q260.144796875,202.2910244140625,259.69579687500004,201.5278244140625ZM269.589796875,212.1716244140625L276.887796875,212.1716244140625L276.887796875,209.5550244140625L269.589796875,209.5550244140625L269.589796875,212.1716244140625ZM276.887796875,206.1070244140625L269.589796875,206.1070244140625L269.589796875,208.2466244140625L276.887796875,208.2466244140625L276.887796875,206.1070244140625ZM271.22479687500004,201.7050244140625L274.94579687500004,201.7050244140625L274.94579687500004,198.7340244140625L271.22479687500004,198.7340244140625L271.22479687500004,201.7050244140625ZM281.568796875,196.4716544140625L286.35279687499997,196.4716544140625L286.35279687499997,210.4885244140625L282.97979687500003,210.4885244140625L282.97979687500003,212.1716244140625L281.568796875,212.1716244140625L281.568796875,196.4716544140625ZM286.699796875,205.3029244140625Q287.885796875,205.0167244140625,288.94879687499997,204.7373244140625L288.94879687499997,200.0218244140625L286.88379687500003,200.0218244140625L286.88379687500003,198.6522244140625L288.94879687499997,198.6522244140625L288.94879687499997,194.7272044140625L290.420796875,194.7272044140625L290.420796875,198.6522244140625L292.260796875,198.6522244140625L292.260796875,200.0218244140625L290.420796875,200.0218244140625L290.420796875,204.3693244140625Q291.483796875,204.0695244140625,292.36279687499996,203.7765244140625Q292.342796875,204.5124244140625,292.36279687499996,205.2892244140625Q291.401796875,205.5686244140625,290.420796875,205.8753244140625L290.420796875,212.2193244140625Q290.420796875,214.3317244140625,288.58079687500003,214.3522244140625Q287.66079687499996,214.3522244140625,286.475796875,214.3317244140625Q286.43479687499996,213.61622441406251,286.291796875,212.7576244140625Q287.415796875,212.8599244140625,288.233796875,212.8599244140625Q288.94879687499997,212.8599244140625,288.94879687499997,212.0013244140625L288.94879687499997,206.2841244140625Q287.967796875,206.5976244140625,286.94579687500004,206.9383244140625L286.699796875,205.3029244140625ZM291.606796875,212.0081244140625L296.553796875,212.0081244140625Q297.65779687500003,207.0132244140625,298.495796875,201.2688244140625L300.089796875,201.6368244140625Q299.129796875,207.1768244140625,297.98479687500003,212.0081244140625L300.764796875,212.0081244140625L300.764796875,213.48002441406248L291.606796875,213.48002441406248L291.606796875,212.0081244140625ZM284.941796875,197.8413144140625L282.97979687500003,197.8413144140625L282.97979687500003,209.1188244140625L284.941796875,209.1188244140625L284.941796875,197.8413144140625ZM294.447796875,201.2688244140625Q295.204796875,205.0303244140625,295.87879687500003,209.6435244140625L294.32579687500004,209.9911244140625Q293.793796875,205.6981244140625,292.996796875,201.6164244140625L294.447796875,201.2688244140625ZM292.791796875,198.2160944140625L300.335796875,198.2160944140625L300.335796875,199.6879244140625L292.791796875,199.6879244140625L292.791796875,198.2160944140625ZM294.938796875,194.8634944140625L296.287796875,194.2910944140625Q297.105796875,195.7970444140625,297.90279687500004,197.5619244140625L296.389796875,198.2160944140625Q295.75679687499996,196.4920944140625,294.938796875,194.8634944140625Z" fill="#86909C" fill-opacity="1"/></g><g><g><path d="M232.944703125,44.3975830078125C232.944703125,44.3975830078125,103.92837312500001,44.3975830078125,103.92837312500001,44.3975830078125C101.090013125,44.3975830078125,98.595703125,46.8855630078125,98.595703125,49.7167030078125C98.595703125,49.7167030078125,98.595703125,138.25438300781252,98.595703125,138.25438300781252C98.595703125,141.0854830078125,101.090013125,140.0559830078125,103.92837312500001,140.0559830078125C103.92837312500001,140.0559830078125,232.600703125,140.0559830078125,232.600703125,140.0559830078125C235.438703125,140.0559830078125,237.932703125,141.0854830078125,237.932703125,138.25438300781252C237.932703125,138.25438300781252,237.932703125,49.7167030078125,237.932703125,49.7167030078125C238.277703125,46.8855630078125,235.782703125,44.3975830078125,232.944703125,44.3975830078125Z" fill="#C5CDD9" fill-opacity="1"/></g><g><path d="M254.53378125,135.0799560546875C254.53378125,135.0799560546875,254.53378125,137.9110960546875,254.53378125,137.9110960546875C254.53378125,141.0854160546875,251.69478125,143.9165660546875,248.51278125,143.9165660546875C248.51278125,143.9165660546875,88.44653124999999,143.9165660546875,88.44653124999999,143.9165660546875C85.26414125,143.9165660546875,82.42578125,141.0854160546875,82.42578125,137.9110960546875C82.42578125,137.9110960546875,82.42578125,135.0799560546875,82.42578125,135.0799560546875C82.42578125,135.0799560546875,254.53378125,135.0799560546875,254.53378125,135.0799560546875C254.53378125,135.0799560546875,254.53378125,135.0799560546875,254.53378125,135.0799560546875Z" fill="#C5CDD9" fill-opacity="1"/></g><g><path d="M184.9502625,135.0799560546875C184.9502625,135.0799560546875,184.9502625,136.1094660546875,184.9502625,136.1094660546875C184.9502625,137.9110960546875,183.5740625,139.6269460546875,181.4237625,139.6269460546875C181.4237625,139.6269460546875,155.1905025,139.6269460546875,155.1905025,139.6269460546875C153.3842725,139.6269460546875,151.6640625,138.2542660546875,151.6640625,136.1094660546875C151.6640625,136.1094660546875,151.6640625,135.0799560546875,151.6640625,135.0799560546875C151.6640625,135.0799560546875,184.9502625,135.0799560546875,184.9502625,135.0799560546875C184.9502625,135.0799560546875,184.9502625,135.0799560546875,184.9502625,135.0799560546875Z" fill="#E9EFF8" fill-opacity="1"/></g><g><g filter="url(#master_svg1_2484_10365)"><path d="M222.88133459472658,55.97955090820312C222.88133459472658,55.97955090820312,222.88133459472658,126.15763090820313,222.88133459472658,126.15763090820313C222.70933459472656,129.07463090820312,220.38733459472655,131.4768309082031,217.37733459472656,131.4768309082031C217.37733459472656,131.4768309082031,113.13202459472656,131.4768309082031,113.13202459472656,131.4768309082031C110.03563459472656,131.4768309082031,107.62733459472656,129.07463090820312,107.62733459472656,126.15763090820313C107.62733459472656,126.15763090820313,107.62733459472656,55.97955090820312,107.62733459472656,55.97955090820312C107.62733459472656,53.06262090820312,110.03563459472656,50.660430908203125,113.13202459472656,50.660430908203125C113.13202459472656,50.660430908203125,217.46333459472658,50.660430908203125,217.46333459472658,50.660430908203125C220.55933459472658,50.660430908203125,222.88133459472658,53.06262090820312,222.88133459472658,55.97955090820312Z" fill="url(#master_svg2_2484_10367)" fill-opacity="1"/></g><g><path d="M113.90628334472656,58.72471961914062C114.93841334472657,58.72471961914062,115.79852334472656,57.86679961914062,115.79852334472656,56.83728961914063C115.79852334472656,55.80778361914062,114.93841334472657,54.949859619140625,113.90628334472656,54.949859619140625C112.87415834472657,54.949859619140625,112.01405334472656,55.80778361914062,112.01405334472656,56.83728961914063C112.01405334472656,57.86679961914062,112.87415834472657,58.72471961914062,113.90628334472656,58.72471961914062Z" fill="#D6DCE8" fill-opacity="1"/></g><g><path d="M119.49417396972656,58.72471961914062C120.52630396972657,58.72471961914062,121.38641396972656,57.86679961914062,121.38641396972656,56.83728961914063C121.38641396972656,55.80778361914062,120.52630396972657,54.949859619140625,119.49417396972656,54.949859619140625C118.46204896972657,54.949859619140625,117.60194396972656,55.80778361914062,117.60194396972656,56.83728961914063C117.60194396972656,57.86679961914062,118.46204896972657,58.72471961914062,119.49417396972656,58.72471961914062Z" fill="#D6DCE8" fill-opacity="1"/></g><g><path d="M125.25979896972656,58.72471961914062C126.29192896972657,58.72471961914062,127.15203896972656,57.86679961914062,127.15203896972656,56.83728961914063C127.15203896972656,55.80778361914062,126.29192896972657,54.949859619140625,125.25979896972656,54.949859619140625C124.22767396972657,54.949859619140625,123.36756896972656,55.80778361914062,123.36756896972656,56.83728961914063C123.36756896972656,57.86679961914062,124.22767396972657,58.72471961914062,125.25979896972656,58.72471961914062Z" fill="#F1F3F9" fill-opacity="1"/></g></g><g><g filter="url(#master_svg3_2484_10377)"><path d="M234.75039892578127,44.226102421875C234.75039892578127,44.226102421875,234.75039892578127,114.404182421875,234.75039892578127,114.404182421875C234.75039892578127,114.489982421875,234.75039892578127,114.661582421875,234.75039892578127,114.747382421875C234.49239892578123,117.578482421875,232.17039892578126,119.723382421875,229.33239892578126,119.723382421875C229.33239892578126,119.723382421875,125.00108892578125,119.723382421875,125.00108892578125,119.723382421875C121.90469892578125,119.723382421875,119.49639892578125,117.321182421875,119.49639892578125,114.404182421875C119.49639892578125,114.404182421875,119.49639892578125,44.226102421875,119.49639892578125,44.226102421875C119.49639892578125,41.309162421875,121.90469892578125,38.906982421875,125.00108892578125,38.906982421875C125.00108892578125,38.906982421875,229.33239892578126,38.906982421875,229.33239892578126,38.906982421875C232.42839892578127,38.906982421875,234.75039892578127,41.223372421875,234.75039892578127,44.226102421875Z" fill="url(#master_svg4_2484_10367)" fill-opacity="1"/></g><g><path d="M125.77534767578125,46.9712711328125C126.80747767578126,46.9712711328125,127.66758767578125,46.1133511328125,127.66758767578125,45.0838411328125C127.66758767578125,44.0543351328125,126.80747767578126,43.1964111328125,125.77534767578125,43.1964111328125C124.74322267578125,43.1964111328125,123.88311767578125,44.0543351328125,123.88311767578125,45.0838411328125C123.88311767578125,46.1133511328125,124.74322267578125,46.9712711328125,125.77534767578125,46.9712711328125Z" fill="#D6DCE8" fill-opacity="1"/></g><g><path d="M131.36714455078126,46.9712711328125C132.39927455078126,46.9712711328125,133.25938455078125,46.1133511328125,133.25938455078125,45.0838411328125C133.25938455078125,44.0543351328125,132.39927455078126,43.1964111328125,131.36714455078126,43.1964111328125C130.33501955078125,43.1964111328125,129.47491455078125,44.0543351328125,129.47491455078125,45.0838411328125C129.47491455078125,46.1133511328125,130.33501955078125,46.9712711328125,131.36714455078126,46.9712711328125Z" fill="#D6DCE8" fill-opacity="1"/></g><g><path d="M137.12886330078126,46.9712711328125C138.16099330078126,46.9712711328125,139.02110330078125,46.1133511328125,139.02110330078125,45.0838411328125C139.02110330078125,44.0543351328125,138.16099330078126,43.1964111328125,137.12886330078126,43.1964111328125C136.09673830078125,43.1964111328125,135.23663330078125,44.0543351328125,135.23663330078125,45.0838411328125C135.23663330078125,46.1133511328125,136.09673830078125,46.9712711328125,137.12886330078126,46.9712711328125Z" fill="#F1F3F9" fill-opacity="1"/></g></g><g><g filter="url(#master_svg5_2484_10382)"><path d="M246.96438818359377,104.2805251953125C246.79238818359374,107.1975251953125,244.47038818359374,109.5997251953125,241.46038818359375,109.5997251953125C241.46038818359375,109.5997251953125,137.21507818359376,109.5997251953125,137.21507818359376,109.5997251953125C134.11868818359375,109.5997251953125,131.71038818359375,107.1975251953125,131.71038818359375,104.2805251953125C131.71038818359375,104.2805251953125,131.71038818359375,34.1024451953125,131.71038818359375,34.1024451953125C131.71038818359375,31.1855051953125,134.11868818359375,28.7833251953125,137.21507818359376,28.7833251953125C137.21507818359376,28.7833251953125,241.54638818359376,28.7833251953125,241.54638818359376,28.7833251953125C244.64238818359377,28.7833251953125,247.05038818359375,31.1855051953125,247.05038818359375,34.1024451953125C247.05038818359375,34.1024451953125,247.05038818359375,104.2805251953125,247.05038818359375,104.2805251953125C247.05038818359375,104.2805251953125,246.96438818359377,104.2805251953125,246.96438818359377,104.2805251953125Z" fill="url(#master_svg6_2484_10367)" fill-opacity="1"/></g><g><path d="M137.98933693359376,36.93340390625C139.02146693359376,36.93340390625,139.88158693359375,36.07548390625,139.88158693359375,35.04597390625C139.88158693359375,34.01646990625,139.02146693359376,33.07275390625,137.98933693359376,33.07275390625C136.95721193359375,33.07275390625,136.09710693359375,33.93067690625,136.09710693359375,34.96018390625C136.09710693359375,35.98969390625,136.95721193359375,36.93340390625,137.98933693359376,36.93340390625Z" fill="#959DAF" fill-opacity="1"/></g><g><path d="M143.57722755859376,36.93340390625C144.60935755859376,36.93340390625,145.46947755859375,36.07548390625,145.46947755859375,35.04597390625C145.46947755859375,34.01646990625,144.60935755859376,33.07275390625,143.57722755859376,33.07275390625C142.54510255859375,33.07275390625,141.68499755859375,33.93067690625,141.68499755859375,34.96018390625C141.68499755859375,35.98969390625,142.54510255859375,36.93340390625,143.57722755859376,36.93340390625Z" fill="#959DAF" fill-opacity="1"/></g><g><path d="M149.34286255859374,36.93340390625C150.37499255859376,36.93340390625,151.23510255859375,36.07548390625,151.23510255859375,35.04597390625C151.23510255859375,34.01646990625,150.37499255859376,33.07275390625,149.34286255859374,33.07275390625C148.31073455859374,33.07275390625,147.45062255859375,33.93067690625,147.45062255859375,34.96018390625C147.45062255859375,35.98969390625,148.22472355859375,36.93340390625,149.34286255859374,36.93340390625Z" fill="#959DAF" fill-opacity="1"/></g></g><g><g><path d="M182.3703900390625,60.44087020507813Q182.3703900390625,60.54828020507813,182.3651000390625,60.655560205078125Q182.3598200390625,60.76284020507813,182.3492600390625,60.86973020507813Q182.3387100390625,60.97663020507812,182.3229100390625,61.08287020507812Q182.3071100390625,61.189120205078126,182.2861000390625,61.29447020507813Q182.2650900390625,61.399810205078126,182.2389300390625,61.504010205078124Q182.2127600390625,61.60820020507813,182.1815000390625,61.71098020507812Q182.1502400390625,61.81377020507813,182.1139600390625,61.914900205078126Q182.0776900390625,62.016030205078124,182.0364800390625,62.11526020507812Q181.9952700390625,62.214500205078124,181.9492300390625,62.31160020507812Q181.9031900390625,62.40869020507812,181.8524300390625,62.50342020507813Q181.80167003906251,62.59815020507813,181.7463000390625,62.690280205078125Q181.6909400390625,62.78241020507812,181.6311200390625,62.87172020507813Q181.5712900390625,62.96102020507813,181.5071500390625,63.04730020507812Q181.4430000390625,63.13357020507812,181.3746800390625,63.21660020507812Q181.3063700390625,63.299630205078124,181.2340500390625,63.379210205078124Q181.1617400390625,63.45880020507813,181.0855900390625,63.534750205078126Q181.0094500390625,63.610700205078125,180.9296600390625,63.682830205078126Q180.8498700390625,63.75496020507813,180.7666300390625,63.82311020507812Q180.6833900390625,63.89124020507813,180.5969000390625,63.955230205078124Q180.5104100390625,64.01921020507812,180.4208700390625,64.07889020507812Q180.3313400390625,64.13856020507812,180.2389700390625,64.19378020507813Q180.1466100390625,64.24900020507812,180.0516400390625,64.29963020507813Q179.9566700390625,64.35027020507812,179.8593300390625,64.39619020507813Q179.7619800390625,64.44211020507812,179.6625000390625,64.48322020507813Q179.5630100390625,64.52432020507813,179.4616200390625,64.56051020507813Q179.36023003906251,64.59669020507812,179.2571900390625,64.62787020507812Q179.1541400390625,64.65905020507813,179.0496800390625,64.68515020507813Q178.9452200390625,64.71125020507813,178.8396100390625,64.73220020507813Q178.7340000390625,64.75316020507813,178.6274800390625,64.76892020507813Q178.5209600390625,64.78468020507813,178.4137900390625,64.79521020507812Q178.3066300390625,64.80574020507812,178.1990800390625,64.81101020507812Q178.0915200390625,64.81628020507813,177.9838400390625,64.81628020507813Q177.8761500390625,64.81628020507813,177.7686000390625,64.81101020507812Q177.6610500390625,64.80574020507812,177.5538800390625,64.79521020507812Q177.4467200390625,64.78468020507813,177.3402000390625,64.76892020507813Q177.2336800390625,64.75316020507813,177.1280600390625,64.73220020507813Q177.0224500390625,64.71125020507813,176.9179900390625,64.68515020507813Q176.8135400390625,64.65905020507813,176.7104900390625,64.62787020507812Q176.6074400390625,64.59669020507812,176.5060500390625,64.56051020507813Q176.4046700390625,64.52432020507813,176.3051800390625,64.48322020507813Q176.2056900390625,64.44211020507812,176.1083500390625,64.39619020507813Q176.0110000390625,64.35027020507812,175.9160300390625,64.29963020507813Q175.8210600390625,64.24900020507812,175.7287000390625,64.19378020507813Q175.6363400390625,64.13856020507812,175.5468000390625,64.07889020507812Q175.4572700390625,64.01921020507812,175.3707700390625,63.955230205078124Q175.2842800390625,63.89124020507813,175.2010400390625,63.82310020507813Q175.1178000390625,63.75496020507813,175.0380100390625,63.682830205078126Q174.9582200390625,63.610700205078125,174.8820800390625,63.534750205078126Q174.8059400390625,63.45880020507813,174.7336200390625,63.379210205078124Q174.6613000390625,63.299630205078124,174.5929900390625,63.21660020507812Q174.5246770390625,63.13357020507812,174.4605290390625,63.04730020507812Q174.3963820390625,62.96102020507813,174.3365560390625,62.871710205078124Q174.2767310390625,62.78241020507812,174.2213700390625,62.690280205078125Q174.1660100390625,62.59815020507813,174.1152480390625,62.50342020507813Q174.0644860390625,62.40869020507812,174.0184460390625,62.31160020507812Q173.9724050390625,62.214500205078124,173.9311960390625,62.11526020507812Q173.8899870390625,62.016030205078124,173.8537100390625,61.914900205078126Q173.8174320390625,61.81377020507813,173.7861730390625,61.71098020507812Q173.7549140390625,61.60820020507813,173.7287490390625,61.504010205078124Q173.7025840390625,61.399810205078126,173.6815763390625,61.29447020507813Q173.6605682390625,61.189120205078126,173.6447677390625,61.08287020507812Q173.6289673390625,60.97663020507812,173.6184124390625,60.86973020507813Q173.6078576390625,60.76284020507813,173.6025738290625,60.655560205078125Q173.5972900390625,60.54828020507813,173.5972900390625,60.44087020507813Q173.5972900390625,60.333460205078126,173.6025738290625,60.22618020507812Q173.6078576390625,60.11890020507813,173.6184124390625,60.012000205078124Q173.6289673390625,59.905110205078124,173.6447677390625,59.79886020507813Q173.6605682390625,59.692610205078125,173.6815763390625,59.58727020507813Q173.7025840390625,59.481920205078126,173.7287490390625,59.37773020507812Q173.7549140390625,59.27354020507813,173.7861730390625,59.17075020507812Q173.8174320390625,59.067970205078126,173.8537100390625,58.96684020507813Q173.8899870390625,58.86571020507812,173.9311960390625,58.76647020507812Q173.9724050390625,58.66724020507812,174.0184450390625,58.570140205078125Q174.0644860390625,58.47304020507813,174.1152480390625,58.378320205078126Q174.1660100390625,58.28359020507813,174.2213700390625,58.19146020507812Q174.2767310390625,58.099330205078125,174.3365570390625,58.01002020507813Q174.3963820390625,57.92071020507812,174.4605300390625,57.834440205078124Q174.5246770390625,57.748170205078125,174.5929900390625,57.665140205078124Q174.6613000390625,57.58211020507812,174.7336200390625,57.50252020507813Q174.8059400390625,57.42294020507813,174.8820800390625,57.34699020507813Q174.9582200390625,57.27104020507812,175.0380100390625,57.198900205078125Q175.1178000390625,57.126770205078124,175.2010400390625,57.058632205078126Q175.2842800390625,56.99049220507813,175.3707700390625,56.926507205078124Q175.4572700390625,56.862523205078126,175.5468000390625,56.802849205078125Q175.6363400390625,56.743175205078124,175.7287000390625,56.687955205078126Q175.8210600390625,56.632736205078125,175.9160300390625,56.58210320507813Q176.0110000390625,56.53147020507812,176.1083500390625,56.48554620507812Q176.2056900390625,56.43962220507812,176.3051800390625,56.398518205078126Q176.4046700390625,56.35741420507812,176.5060500390625,56.321229205078126Q176.6074400390625,56.285043205078125,176.7104900390625,56.25386420507812Q176.8135400390625,56.222684205078124,176.9179900390625,56.19658520507812Q177.0224500390625,56.170487205078125,177.1280600390625,56.149532405078126Q177.2336800390625,56.12857770507812,177.3402000390625,56.112817405078125Q177.4467200390625,56.09705700507813,177.5538800390625,56.08652900507813Q177.6610500390625,56.076000905078125,177.7686000390625,56.07073057507812Q177.8761500390625,56.065460205078125,177.9838400390625,56.065460205078125Q178.0915200390625,56.065460205078125,178.1990800390625,56.07073057507812Q178.3066300390625,56.076000905078125,178.4137900390625,56.08652900507813Q178.5209600390625,56.09705700507813,178.6274800390625,56.112817405078125Q178.7340000390625,56.12857770507812,178.8396100390625,56.149532405078126Q178.9452200390625,56.170487205078125,179.0496800390625,56.19658520507812Q179.1541400390625,56.222684205078124,179.2571900390625,56.25386420507812Q179.36023003906251,56.285043205078125,179.4616200390625,56.321229205078126Q179.5630100390625,56.35741420507812,179.6625000390625,56.398518205078126Q179.7619800390625,56.43962220507812,179.8593300390625,56.48554620507812Q179.9566700390625,56.53147020507812,180.0516400390625,56.58210320507813Q180.1466100390625,56.632736205078125,180.2389700390625,56.687955205078126Q180.3313400390625,56.743175205078124,180.4208700390625,56.802849205078125Q180.5104100390625,56.862523205078126,180.5969000390625,56.926507205078124Q180.6833900390625,56.99049220507813,180.7666300390625,57.058632205078126Q180.8498700390625,57.126770205078124,180.9296600390625,57.198900205078125Q181.0094500390625,57.27104020507812,181.0856000390625,57.34699020507813Q181.1617400390625,57.42294020507813,181.2340600390625,57.50252020507813Q181.3063700390625,57.58211020507812,181.3746900390625,57.665140205078124Q181.4430000390625,57.748170205078125,181.5071500390625,57.834440205078124Q181.5712900390625,57.92071020507812,181.6311200390625,58.01002020507813Q181.6909400390625,58.099330205078125,181.7463100390625,58.19146020507812Q181.80167003906251,58.28359020507813,181.8524300390625,58.378320205078126Q181.9031900390625,58.47304020507813,181.9492300390625,58.570140205078125Q181.9952700390625,58.66724020507812,182.0364800390625,58.76647020507812Q182.0776900390625,58.86571020507812,182.1139600390625,58.96684020507813Q182.1502400390625,59.067970205078126,182.1815000390625,59.17075020507812Q182.2127600390625,59.27354020507813,182.2389300390625,59.37773020507812Q182.2650900390625,59.481920205078126,182.2861000390625,59.58727020507813Q182.3071100390625,59.692610205078125,182.3229100390625,59.79886020507813Q182.3387100390625,59.905110205078124,182.3492600390625,60.012000205078124Q182.3598200390625,60.11890020507813,182.3651000390625,60.22618020507812Q182.3703900390625,60.333460205078126,182.3703900390625,60.44087020507813Z" fill="#959DAF" fill-opacity="1"/><path d="M182.3703900390625,60.44087020507813Q182.3703900390625,60.54828020507813,182.3651000390625,60.655560205078125Q182.3598200390625,60.76284020507813,182.3492600390625,60.86973020507813Q182.3387100390625,60.97663020507812,182.3229100390625,61.08287020507812Q182.3071100390625,61.189120205078126,182.2861000390625,61.29447020507813Q182.2650900390625,61.399810205078126,182.2389300390625,61.504010205078124Q182.2127600390625,61.60820020507813,182.1815000390625,61.71098020507812Q182.1502400390625,61.81377020507813,182.1139600390625,61.914900205078126Q182.0776900390625,62.016030205078124,182.0364800390625,62.11526020507812Q181.9952700390625,62.214500205078124,181.9492300390625,62.31160020507812Q181.9031900390625,62.40869020507812,181.8524300390625,62.50342020507813Q181.80167003906251,62.59815020507813,181.7463000390625,62.690280205078125Q181.6909400390625,62.78241020507812,181.6311200390625,62.87172020507813Q181.5712900390625,62.96102020507813,181.5071500390625,63.04730020507812Q181.4430000390625,63.13357020507812,181.3746800390625,63.21660020507812Q181.3063700390625,63.299630205078124,181.2340500390625,63.379210205078124Q181.1617400390625,63.45880020507813,181.0855900390625,63.534750205078126Q181.0094500390625,63.610700205078125,180.9296600390625,63.682830205078126Q180.8498700390625,63.75496020507813,180.7666300390625,63.82311020507812Q180.6833900390625,63.89124020507813,180.5969000390625,63.955230205078124Q180.5104100390625,64.01921020507812,180.4208700390625,64.07889020507812Q180.3313400390625,64.13856020507812,180.2389700390625,64.19378020507813Q180.1466100390625,64.24900020507812,180.0516400390625,64.29963020507813Q179.9566700390625,64.35027020507812,179.8593300390625,64.39619020507813Q179.7619800390625,64.44211020507812,179.6625000390625,64.48322020507813Q179.5630100390625,64.52432020507813,179.4616200390625,64.56051020507813Q179.36023003906251,64.59669020507812,179.2571900390625,64.62787020507812Q179.1541400390625,64.65905020507813,179.0496800390625,64.68515020507813Q178.9452200390625,64.71125020507813,178.8396100390625,64.73220020507813Q178.7340000390625,64.75316020507813,178.6274800390625,64.76892020507813Q178.5209600390625,64.78468020507813,178.4137900390625,64.79521020507812Q178.3066300390625,64.80574020507812,178.1990800390625,64.81101020507812Q178.0915200390625,64.81628020507813,177.9838400390625,64.81628020507813Q177.8761500390625,64.81628020507813,177.7686000390625,64.81101020507812Q177.6610500390625,64.80574020507812,177.5538800390625,64.79521020507812Q177.4467200390625,64.78468020507813,177.3402000390625,64.76892020507813Q177.2336800390625,64.75316020507813,177.1280600390625,64.73220020507813Q177.0224500390625,64.71125020507813,176.9179900390625,64.68515020507813Q176.8135400390625,64.65905020507813,176.7104900390625,64.62787020507812Q176.6074400390625,64.59669020507812,176.5060500390625,64.56051020507813Q176.4046700390625,64.52432020507813,176.3051800390625,64.48322020507813Q176.2056900390625,64.44211020507812,176.1083500390625,64.39619020507813Q176.0110000390625,64.35027020507812,175.9160300390625,64.29963020507813Q175.8210600390625,64.24900020507812,175.7287000390625,64.19378020507813Q175.6363400390625,64.13856020507812,175.5468000390625,64.07889020507812Q175.4572700390625,64.01921020507812,175.3707700390625,63.955230205078124Q175.2842800390625,63.89124020507813,175.2010400390625,63.82310020507813Q175.1178000390625,63.75496020507813,175.0380100390625,63.682830205078126Q174.9582200390625,63.610700205078125,174.8820800390625,63.534750205078126Q174.8059400390625,63.45880020507813,174.7336200390625,63.379210205078124Q174.6613000390625,63.299630205078124,174.5929900390625,63.21660020507812Q174.5246770390625,63.13357020507812,174.4605290390625,63.04730020507812Q174.3963820390625,62.96102020507813,174.3365560390625,62.871710205078124Q174.2767310390625,62.78241020507812,174.2213700390625,62.690280205078125Q174.1660100390625,62.59815020507813,174.1152480390625,62.50342020507813Q174.0644860390625,62.40869020507812,174.0184460390625,62.31160020507812Q173.9724050390625,62.214500205078124,173.9311960390625,62.11526020507812Q173.8899870390625,62.016030205078124,173.8537100390625,61.914900205078126Q173.8174320390625,61.81377020507813,173.7861730390625,61.71098020507812Q173.7549140390625,61.60820020507813,173.7287490390625,61.504010205078124Q173.7025840390625,61.399810205078126,173.6815763390625,61.29447020507813Q173.6605682390625,61.189120205078126,173.6447677390625,61.08287020507812Q173.6289673390625,60.97663020507812,173.6184124390625,60.86973020507813Q173.6078576390625,60.76284020507813,173.6025738290625,60.655560205078125Q173.5972900390625,60.54828020507813,173.5972900390625,60.44087020507813Q173.5972900390625,60.333460205078126,173.6025738290625,60.22618020507812Q173.6078576390625,60.11890020507813,173.6184124390625,60.012000205078124Q173.6289673390625,59.905110205078124,173.6447677390625,59.79886020507813Q173.6605682390625,59.692610205078125,173.6815763390625,59.58727020507813Q173.7025840390625,59.481920205078126,173.7287490390625,59.37773020507812Q173.7549140390625,59.27354020507813,173.7861730390625,59.17075020507812Q173.8174320390625,59.067970205078126,173.8537100390625,58.96684020507813Q173.8899870390625,58.86571020507812,173.9311960390625,58.76647020507812Q173.9724050390625,58.66724020507812,174.0184450390625,58.570140205078125Q174.0644860390625,58.47304020507813,174.1152480390625,58.378320205078126Q174.1660100390625,58.28359020507813,174.2213700390625,58.19146020507812Q174.2767310390625,58.099330205078125,174.3365570390625,58.01002020507813Q174.3963820390625,57.92071020507812,174.4605300390625,57.834440205078124Q174.5246770390625,57.748170205078125,174.5929900390625,57.665140205078124Q174.6613000390625,57.58211020507812,174.7336200390625,57.50252020507813Q174.8059400390625,57.42294020507813,174.8820800390625,57.34699020507813Q174.9582200390625,57.27104020507812,175.0380100390625,57.198900205078125Q175.1178000390625,57.126770205078124,175.2010400390625,57.058632205078126Q175.2842800390625,56.99049220507813,175.3707700390625,56.926507205078124Q175.4572700390625,56.862523205078126,175.5468000390625,56.802849205078125Q175.6363400390625,56.743175205078124,175.7287000390625,56.687955205078126Q175.8210600390625,56.632736205078125,175.9160300390625,56.58210320507813Q176.0110000390625,56.53147020507812,176.1083500390625,56.48554620507812Q176.2056900390625,56.43962220507812,176.3051800390625,56.398518205078126Q176.4046700390625,56.35741420507812,176.5060500390625,56.321229205078126Q176.6074400390625,56.285043205078125,176.7104900390625,56.25386420507812Q176.8135400390625,56.222684205078124,176.9179900390625,56.19658520507812Q177.0224500390625,56.170487205078125,177.1280600390625,56.149532405078126Q177.2336800390625,56.12857770507812,177.3402000390625,56.112817405078125Q177.4467200390625,56.09705700507813,177.5538800390625,56.08652900507813Q177.6610500390625,56.076000905078125,177.7686000390625,56.07073057507812Q177.8761500390625,56.065460205078125,177.9838400390625,56.065460205078125Q178.0915200390625,56.065460205078125,178.1990800390625,56.07073057507812Q178.3066300390625,56.076000905078125,178.4137900390625,56.08652900507813Q178.5209600390625,56.09705700507813,178.6274800390625,56.112817405078125Q178.7340000390625,56.12857770507812,178.8396100390625,56.149532405078126Q178.9452200390625,56.170487205078125,179.0496800390625,56.19658520507812Q179.1541400390625,56.222684205078124,179.2571900390625,56.25386420507812Q179.36023003906251,56.285043205078125,179.4616200390625,56.321229205078126Q179.5630100390625,56.35741420507812,179.6625000390625,56.398518205078126Q179.7619800390625,56.43962220507812,179.8593300390625,56.48554620507812Q179.9566700390625,56.53147020507812,180.0516400390625,56.58210320507813Q180.1466100390625,56.632736205078125,180.2389700390625,56.687955205078126Q180.3313400390625,56.743175205078124,180.4208700390625,56.802849205078125Q180.5104100390625,56.862523205078126,180.5969000390625,56.926507205078124Q180.6833900390625,56.99049220507813,180.7666300390625,57.058632205078126Q180.8498700390625,57.126770205078124,180.9296600390625,57.198900205078125Q181.0094500390625,57.27104020507812,181.0856000390625,57.34699020507813Q181.1617400390625,57.42294020507813,181.2340600390625,57.50252020507813Q181.3063700390625,57.58211020507812,181.3746900390625,57.665140205078124Q181.4430000390625,57.748170205078125,181.5071500390625,57.834440205078124Q181.5712900390625,57.92071020507812,181.6311200390625,58.01002020507813Q181.6909400390625,58.099330205078125,181.7463100390625,58.19146020507812Q181.80167003906251,58.28359020507813,181.8524300390625,58.378320205078126Q181.9031900390625,58.47304020507813,181.9492300390625,58.570140205078125Q181.9952700390625,58.66724020507812,182.0364800390625,58.76647020507812Q182.0776900390625,58.86571020507812,182.1139600390625,58.96684020507813Q182.1502400390625,59.067970205078126,182.1815000390625,59.17075020507812Q182.2127600390625,59.27354020507813,182.2389300390625,59.37773020507812Q182.2650900390625,59.481920205078126,182.2861000390625,59.58727020507813Q182.3071100390625,59.692610205078125,182.3229100390625,59.79886020507813Q182.3387100390625,59.905110205078124,182.3492600390625,60.012000205078124Q182.3598200390625,60.11890020507813,182.3651000390625,60.22618020507812Q182.3703900390625,60.333460205078126,182.3703900390625,60.44087020507813ZM181.0620500390625,60.44087020507813Q181.0620500390625,59.17142020507813,180.1616400390625,58.273290205078126Q179.2598500390625,57.37379020507812,177.9838400390625,57.37379020507812Q176.7078300390625,57.37379020507812,175.8060300390625,58.273290205078126Q174.9056200390625,59.17142020507813,174.9056200390625,60.44087020507813Q174.9056200390625,61.710320205078126,175.8060300390625,62.608440205078125Q176.7078300390625,63.50794020507813,177.9838400390625,63.50794020507813Q179.2598500390625,63.50794020507813,180.1616400390625,62.608440205078125Q181.0620500390625,61.710320205078126,181.0620500390625,60.44087020507813Z" fill-rule="evenodd" fill="#FFFFFF" fill-opacity="1"/></g><g><path d="M203.3567181640625,60.44087020507813Q203.3567181640625,60.54828020507813,203.3514281640625,60.655560205078125Q203.3461481640625,60.76284020507813,203.3355881640625,60.86973020507813Q203.3250381640625,60.97663020507812,203.3092381640625,61.08287020507812Q203.2934381640625,61.189120205078126,203.2724281640625,61.29447020507813Q203.2514181640625,61.399810205078126,203.2252581640625,61.504010205078124Q203.1990881640625,61.60820020507813,203.1678281640625,61.71098020507812Q203.1365681640625,61.81377020507813,203.1002881640625,61.914900205078126Q203.0640181640625,62.016030205078124,203.0228081640625,62.11526020507812Q202.9815981640625,62.214500205078124,202.9355581640625,62.31160020507812Q202.8895181640625,62.40869020507812,202.8387581640625,62.50342020507813Q202.78799816406251,62.59815020507813,202.7326281640625,62.690280205078125Q202.6772681640625,62.78241020507812,202.6174481640625,62.87172020507813Q202.5576181640625,62.96102020507813,202.4934781640625,63.04730020507812Q202.4293281640625,63.13357020507812,202.3610081640625,63.21660020507812Q202.2926981640625,63.299630205078124,202.2203781640625,63.379210205078124Q202.1480681640625,63.45880020507813,202.0719181640625,63.534750205078126Q201.9957781640625,63.610700205078125,201.9159881640625,63.682830205078126Q201.8361981640625,63.75496020507813,201.7529581640625,63.82311020507812Q201.6697181640625,63.89124020507813,201.5832281640625,63.955230205078124Q201.4967381640625,64.01921020507812,201.4071981640625,64.07889020507812Q201.3176681640625,64.13856020507812,201.2252981640625,64.19378020507813Q201.1329381640625,64.24900020507812,201.0379681640625,64.29963020507813Q200.9429981640625,64.35027020507812,200.8456581640625,64.39619020507813Q200.7483081640625,64.44211020507812,200.6488281640625,64.48322020507813Q200.5493381640625,64.52432020507813,200.4479481640625,64.56051020507813Q200.34655816406251,64.59669020507812,200.2435181640625,64.62787020507812Q200.1404681640625,64.65905020507813,200.0360081640625,64.68515020507813Q199.9315481640625,64.71125020507813,199.8259381640625,64.73220020507813Q199.7203281640625,64.75316020507813,199.6138081640625,64.76892020507813Q199.5072881640625,64.78468020507813,199.4001181640625,64.79521020507812Q199.2929581640625,64.80574020507812,199.1854081640625,64.81101020507812Q199.0778481640625,64.81628020507813,198.9701681640625,64.81628020507813Q198.8624781640625,64.81628020507813,198.7549281640625,64.81101020507812Q198.6473781640625,64.80574020507812,198.5402081640625,64.79521020507812Q198.4330481640625,64.78468020507813,198.3265281640625,64.76892020507813Q198.2200081640625,64.75316020507813,198.1143881640625,64.73220020507813Q198.0087781640625,64.71125020507813,197.9043181640625,64.68515020507813Q197.7998681640625,64.65905020507813,197.6968181640625,64.62787020507812Q197.5937681640625,64.59669020507812,197.4923781640625,64.56051020507813Q197.3909981640625,64.52432020507813,197.2915081640625,64.48322020507813Q197.1920181640625,64.44211020507812,197.0946781640625,64.39619020507813Q196.9973281640625,64.35027020507812,196.9023581640625,64.29963020507813Q196.8073881640625,64.24900020507812,196.7150281640625,64.19378020507813Q196.6226681640625,64.13856020507812,196.5331281640625,64.07889020507812Q196.4435981640625,64.01921020507812,196.3570981640625,63.955230205078124Q196.2706081640625,63.89124020507813,196.1873681640625,63.82310020507813Q196.1041281640625,63.75496020507813,196.0243381640625,63.682830205078126Q195.9445481640625,63.610700205078125,195.8684081640625,63.534750205078126Q195.7922681640625,63.45880020507813,195.7199481640625,63.379210205078124Q195.6476281640625,63.299630205078124,195.5793181640625,63.21660020507812Q195.5110051640625,63.13357020507812,195.4468571640625,63.04730020507812Q195.3827101640625,62.96102020507813,195.3228841640625,62.871710205078124Q195.2630591640625,62.78241020507812,195.2076981640625,62.690280205078125Q195.1523381640625,62.59815020507813,195.1015761640625,62.50342020507813Q195.0508141640625,62.40869020507812,195.0047741640625,62.31160020507812Q194.9587331640625,62.214500205078124,194.9175241640625,62.11526020507812Q194.8763151640625,62.016030205078124,194.8400381640625,61.914900205078126Q194.8037601640625,61.81377020507813,194.7725011640625,61.71098020507812Q194.7412421640625,61.60820020507813,194.7150771640625,61.504010205078124Q194.6889121640625,61.399810205078126,194.6679044640625,61.29447020507813Q194.6468963640625,61.189120205078126,194.6310958640625,61.08287020507812Q194.6152954640625,60.97663020507812,194.6047405640625,60.86973020507813Q194.5941857640625,60.76284020507813,194.5889019540625,60.655560205078125Q194.5836181640625,60.54828020507813,194.5836181640625,60.44087020507813Q194.5836181640625,60.333460205078126,194.5889019540625,60.22618020507812Q194.5941857640625,60.11890020507813,194.6047405640625,60.012000205078124Q194.6152954640625,59.905110205078124,194.6310958640625,59.79886020507813Q194.6468963640625,59.692610205078125,194.6679044640625,59.58727020507813Q194.6889121640625,59.481920205078126,194.7150771640625,59.37773020507812Q194.7412421640625,59.27354020507813,194.7725011640625,59.17075020507812Q194.8037601640625,59.067970205078126,194.8400381640625,58.96684020507813Q194.8763151640625,58.86571020507812,194.9175241640625,58.76647020507812Q194.9587331640625,58.66724020507812,195.0047731640625,58.570140205078125Q195.0508141640625,58.47304020507813,195.1015761640625,58.378320205078126Q195.1523381640625,58.28359020507813,195.2076981640625,58.19146020507812Q195.2630591640625,58.099330205078125,195.3228851640625,58.01002020507813Q195.3827101640625,57.92071020507812,195.4468581640625,57.834440205078124Q195.5110051640625,57.748170205078125,195.5793181640625,57.665140205078124Q195.6476281640625,57.58211020507812,195.7199481640625,57.50252020507813Q195.7922681640625,57.42294020507813,195.8684081640625,57.34699020507813Q195.9445481640625,57.27104020507812,196.0243381640625,57.198900205078125Q196.1041281640625,57.126770205078124,196.1873681640625,57.058632205078126Q196.2706081640625,56.99049220507813,196.3570981640625,56.926507205078124Q196.4435981640625,56.862523205078126,196.5331281640625,56.802849205078125Q196.6226681640625,56.743175205078124,196.7150281640625,56.687955205078126Q196.8073881640625,56.632736205078125,196.9023581640625,56.58210320507813Q196.9973281640625,56.53147020507812,197.0946781640625,56.48554620507812Q197.1920181640625,56.43962220507812,197.2915081640625,56.398518205078126Q197.3909981640625,56.35741420507812,197.4923781640625,56.321229205078126Q197.5937681640625,56.285043205078125,197.6968181640625,56.25386420507812Q197.7998681640625,56.222684205078124,197.9043181640625,56.19658520507812Q198.0087781640625,56.170487205078125,198.1143881640625,56.149532405078126Q198.2200081640625,56.12857770507812,198.3265281640625,56.112817405078125Q198.4330481640625,56.09705700507813,198.5402081640625,56.08652900507813Q198.6473781640625,56.076000905078125,198.7549281640625,56.07073057507812Q198.8624781640625,56.065460205078125,198.9701681640625,56.065460205078125Q199.0778481640625,56.065460205078125,199.1854081640625,56.07073057507812Q199.2929581640625,56.076000905078125,199.4001181640625,56.08652900507813Q199.5072881640625,56.09705700507813,199.6138081640625,56.112817405078125Q199.7203281640625,56.12857770507812,199.8259381640625,56.149532405078126Q199.9315481640625,56.170487205078125,200.0360081640625,56.19658520507812Q200.1404681640625,56.222684205078124,200.2435181640625,56.25386420507812Q200.34655816406251,56.285043205078125,200.4479481640625,56.321229205078126Q200.5493381640625,56.35741420507812,200.6488281640625,56.398518205078126Q200.7483081640625,56.43962220507812,200.8456581640625,56.48554620507812Q200.9429981640625,56.53147020507812,201.0379681640625,56.58210320507813Q201.1329381640625,56.632736205078125,201.2252981640625,56.687955205078126Q201.3176681640625,56.743175205078124,201.4071981640625,56.802849205078125Q201.4967381640625,56.862523205078126,201.5832281640625,56.926507205078124Q201.6697181640625,56.99049220507813,201.7529581640625,57.058632205078126Q201.8361981640625,57.126770205078124,201.9159881640625,57.198900205078125Q201.9957781640625,57.27104020507812,202.0719281640625,57.34699020507813Q202.1480681640625,57.42294020507813,202.2203881640625,57.50252020507813Q202.2926981640625,57.58211020507812,202.3610181640625,57.665140205078124Q202.4293281640625,57.748170205078125,202.4934781640625,57.834440205078124Q202.5576181640625,57.92071020507812,202.6174481640625,58.01002020507813Q202.6772681640625,58.099330205078125,202.7326381640625,58.19146020507812Q202.78799816406251,58.28359020507813,202.8387581640625,58.378320205078126Q202.8895181640625,58.47304020507813,202.9355581640625,58.570140205078125Q202.9815981640625,58.66724020507812,203.0228081640625,58.76647020507812Q203.0640181640625,58.86571020507812,203.1002881640625,58.96684020507813Q203.1365681640625,59.067970205078126,203.1678281640625,59.17075020507812Q203.1990881640625,59.27354020507813,203.2252581640625,59.37773020507812Q203.2514181640625,59.481920205078126,203.2724281640625,59.58727020507813Q203.2934381640625,59.692610205078125,203.3092381640625,59.79886020507813Q203.3250381640625,59.905110205078124,203.3355881640625,60.012000205078124Q203.3461481640625,60.11890020507813,203.3514281640625,60.22618020507812Q203.3567181640625,60.333460205078126,203.3567181640625,60.44087020507813Z" fill="#959DAF" fill-opacity="1"/><path d="M203.3567181640625,60.44087020507813Q203.3567181640625,60.54828020507813,203.3514281640625,60.655560205078125Q203.3461481640625,60.76284020507813,203.3355881640625,60.86973020507813Q203.3250381640625,60.97663020507812,203.3092381640625,61.08287020507812Q203.2934381640625,61.189120205078126,203.2724281640625,61.29447020507813Q203.2514181640625,61.399810205078126,203.2252581640625,61.504010205078124Q203.1990881640625,61.60820020507813,203.1678281640625,61.71098020507812Q203.1365681640625,61.81377020507813,203.1002881640625,61.914900205078126Q203.0640181640625,62.016030205078124,203.0228081640625,62.11526020507812Q202.9815981640625,62.214500205078124,202.9355581640625,62.31160020507812Q202.8895181640625,62.40869020507812,202.8387581640625,62.50342020507813Q202.78799816406251,62.59815020507813,202.7326281640625,62.690280205078125Q202.6772681640625,62.78241020507812,202.6174481640625,62.87172020507813Q202.5576181640625,62.96102020507813,202.4934781640625,63.04730020507812Q202.4293281640625,63.13357020507812,202.3610081640625,63.21660020507812Q202.2926981640625,63.299630205078124,202.2203781640625,63.379210205078124Q202.1480681640625,63.45880020507813,202.0719181640625,63.534750205078126Q201.9957781640625,63.610700205078125,201.9159881640625,63.682830205078126Q201.8361981640625,63.75496020507813,201.7529581640625,63.82311020507812Q201.6697181640625,63.89124020507813,201.5832281640625,63.955230205078124Q201.4967381640625,64.01921020507812,201.4071981640625,64.07889020507812Q201.3176681640625,64.13856020507812,201.2252981640625,64.19378020507813Q201.1329381640625,64.24900020507812,201.0379681640625,64.29963020507813Q200.9429981640625,64.35027020507812,200.8456581640625,64.39619020507813Q200.7483081640625,64.44211020507812,200.6488281640625,64.48322020507813Q200.5493381640625,64.52432020507813,200.4479481640625,64.56051020507813Q200.34655816406251,64.59669020507812,200.2435181640625,64.62787020507812Q200.1404681640625,64.65905020507813,200.0360081640625,64.68515020507813Q199.9315481640625,64.71125020507813,199.8259381640625,64.73220020507813Q199.7203281640625,64.75316020507813,199.6138081640625,64.76892020507813Q199.5072881640625,64.78468020507813,199.4001181640625,64.79521020507812Q199.2929581640625,64.80574020507812,199.1854081640625,64.81101020507812Q199.0778481640625,64.81628020507813,198.9701681640625,64.81628020507813Q198.8624781640625,64.81628020507813,198.7549281640625,64.81101020507812Q198.6473781640625,64.80574020507812,198.5402081640625,64.79521020507812Q198.4330481640625,64.78468020507813,198.3265281640625,64.76892020507813Q198.2200081640625,64.75316020507813,198.1143881640625,64.73220020507813Q198.0087781640625,64.71125020507813,197.9043181640625,64.68515020507813Q197.7998681640625,64.65905020507813,197.6968181640625,64.62787020507812Q197.5937681640625,64.59669020507812,197.4923781640625,64.56051020507813Q197.3909981640625,64.52432020507813,197.2915081640625,64.48322020507813Q197.1920181640625,64.44211020507812,197.0946781640625,64.39619020507813Q196.9973281640625,64.35027020507812,196.9023581640625,64.29963020507813Q196.8073881640625,64.24900020507812,196.7150281640625,64.19378020507813Q196.6226681640625,64.13856020507812,196.5331281640625,64.07889020507812Q196.4435981640625,64.01921020507812,196.3570981640625,63.955230205078124Q196.2706081640625,63.89124020507813,196.1873681640625,63.82310020507813Q196.1041281640625,63.75496020507813,196.0243381640625,63.682830205078126Q195.9445481640625,63.610700205078125,195.8684081640625,63.534750205078126Q195.7922681640625,63.45880020507813,195.7199481640625,63.379210205078124Q195.6476281640625,63.299630205078124,195.5793181640625,63.21660020507812Q195.5110051640625,63.13357020507812,195.4468571640625,63.04730020507812Q195.3827101640625,62.96102020507813,195.3228841640625,62.871710205078124Q195.2630591640625,62.78241020507812,195.2076981640625,62.690280205078125Q195.1523381640625,62.59815020507813,195.1015761640625,62.50342020507813Q195.0508141640625,62.40869020507812,195.0047741640625,62.31160020507812Q194.9587331640625,62.214500205078124,194.9175241640625,62.11526020507812Q194.8763151640625,62.016030205078124,194.8400381640625,61.914900205078126Q194.8037601640625,61.81377020507813,194.7725011640625,61.71098020507812Q194.7412421640625,61.60820020507813,194.7150771640625,61.504010205078124Q194.6889121640625,61.399810205078126,194.6679044640625,61.29447020507813Q194.6468963640625,61.189120205078126,194.6310958640625,61.08287020507812Q194.6152954640625,60.97663020507812,194.6047405640625,60.86973020507813Q194.5941857640625,60.76284020507813,194.5889019540625,60.655560205078125Q194.5836181640625,60.54828020507813,194.5836181640625,60.44087020507813Q194.5836181640625,60.333460205078126,194.5889019540625,60.22618020507812Q194.5941857640625,60.11890020507813,194.6047405640625,60.012000205078124Q194.6152954640625,59.905110205078124,194.6310958640625,59.79886020507813Q194.6468963640625,59.692610205078125,194.6679044640625,59.58727020507813Q194.6889121640625,59.481920205078126,194.7150771640625,59.37773020507812Q194.7412421640625,59.27354020507813,194.7725011640625,59.17075020507812Q194.8037601640625,59.067970205078126,194.8400381640625,58.96684020507813Q194.8763151640625,58.86571020507812,194.9175241640625,58.76647020507812Q194.9587331640625,58.66724020507812,195.0047731640625,58.570140205078125Q195.0508141640625,58.47304020507813,195.1015761640625,58.378320205078126Q195.1523381640625,58.28359020507813,195.2076981640625,58.19146020507812Q195.2630591640625,58.099330205078125,195.3228851640625,58.01002020507813Q195.3827101640625,57.92071020507812,195.4468581640625,57.834440205078124Q195.5110051640625,57.748170205078125,195.5793181640625,57.665140205078124Q195.6476281640625,57.58211020507812,195.7199481640625,57.50252020507813Q195.7922681640625,57.42294020507813,195.8684081640625,57.34699020507813Q195.9445481640625,57.27104020507812,196.0243381640625,57.198900205078125Q196.1041281640625,57.126770205078124,196.1873681640625,57.058632205078126Q196.2706081640625,56.99049220507813,196.3570981640625,56.926507205078124Q196.4435981640625,56.862523205078126,196.5331281640625,56.802849205078125Q196.6226681640625,56.743175205078124,196.7150281640625,56.687955205078126Q196.8073881640625,56.632736205078125,196.9023581640625,56.58210320507813Q196.9973281640625,56.53147020507812,197.0946781640625,56.48554620507812Q197.1920181640625,56.43962220507812,197.2915081640625,56.398518205078126Q197.3909981640625,56.35741420507812,197.4923781640625,56.321229205078126Q197.5937681640625,56.285043205078125,197.6968181640625,56.25386420507812Q197.7998681640625,56.222684205078124,197.9043181640625,56.19658520507812Q198.0087781640625,56.170487205078125,198.1143881640625,56.149532405078126Q198.2200081640625,56.12857770507812,198.3265281640625,56.112817405078125Q198.4330481640625,56.09705700507813,198.5402081640625,56.08652900507813Q198.6473781640625,56.076000905078125,198.7549281640625,56.07073057507812Q198.8624781640625,56.065460205078125,198.9701681640625,56.065460205078125Q199.0778481640625,56.065460205078125,199.1854081640625,56.07073057507812Q199.2929581640625,56.076000905078125,199.4001181640625,56.08652900507813Q199.5072881640625,56.09705700507813,199.6138081640625,56.112817405078125Q199.7203281640625,56.12857770507812,199.8259381640625,56.149532405078126Q199.9315481640625,56.170487205078125,200.0360081640625,56.19658520507812Q200.1404681640625,56.222684205078124,200.2435181640625,56.25386420507812Q200.34655816406251,56.285043205078125,200.4479481640625,56.321229205078126Q200.5493381640625,56.35741420507812,200.6488281640625,56.398518205078126Q200.7483081640625,56.43962220507812,200.8456581640625,56.48554620507812Q200.9429981640625,56.53147020507812,201.0379681640625,56.58210320507813Q201.1329381640625,56.632736205078125,201.2252981640625,56.687955205078126Q201.3176681640625,56.743175205078124,201.4071981640625,56.802849205078125Q201.4967381640625,56.862523205078126,201.5832281640625,56.926507205078124Q201.6697181640625,56.99049220507813,201.7529581640625,57.058632205078126Q201.8361981640625,57.126770205078124,201.9159881640625,57.198900205078125Q201.9957781640625,57.27104020507812,202.0719281640625,57.34699020507813Q202.1480681640625,57.42294020507813,202.2203881640625,57.50252020507813Q202.2926981640625,57.58211020507812,202.3610181640625,57.665140205078124Q202.4293281640625,57.748170205078125,202.4934781640625,57.834440205078124Q202.5576181640625,57.92071020507812,202.6174481640625,58.01002020507813Q202.6772681640625,58.099330205078125,202.7326381640625,58.19146020507812Q202.78799816406251,58.28359020507813,202.8387581640625,58.378320205078126Q202.8895181640625,58.47304020507813,202.9355581640625,58.570140205078125Q202.9815981640625,58.66724020507812,203.0228081640625,58.76647020507812Q203.0640181640625,58.86571020507812,203.1002881640625,58.96684020507813Q203.1365681640625,59.067970205078126,203.1678281640625,59.17075020507812Q203.1990881640625,59.27354020507813,203.2252581640625,59.37773020507812Q203.2514181640625,59.481920205078126,203.2724281640625,59.58727020507813Q203.2934381640625,59.692610205078125,203.3092381640625,59.79886020507813Q203.3250381640625,59.905110205078124,203.3355881640625,60.012000205078124Q203.3461481640625,60.11890020507813,203.3514281640625,60.22618020507812Q203.3567181640625,60.333460205078126,203.3567181640625,60.44087020507813ZM202.0483781640625,60.44087020507813Q202.0483781640625,59.17142020507813,201.1479681640625,58.273290205078126Q200.2461781640625,57.37379020507812,198.9701681640625,57.37379020507812Q197.6941581640625,57.37379020507812,196.7923581640625,58.273290205078126Q195.8919481640625,59.17142020507813,195.8919481640625,60.44087020507813Q195.8919481640625,61.710320205078126,196.7923581640625,62.608440205078125Q197.6941581640625,63.50794020507813,198.9701681640625,63.50794020507813Q200.2461781640625,63.50794020507813,201.1479681640625,62.608440205078125Q202.0483781640625,61.710320205078126,202.0483781640625,60.44087020507813Z" fill-rule="evenodd" fill="#FFFFFF" fill-opacity="1"/></g></g><g><g><path d="M197.68055810546875,82.91820302734375C197.68055810546875,82.91820302734375,179.27424810546876,82.91820302734375,179.27424810546876,82.91820302734375C176.34988310546876,82.91820302734375,174.71567810546875,79.65812302734375,176.43589810546874,77.25594302734375C177.72605810546875,75.45430302734376,179.36026810546875,73.99583302734375,181.25249810546876,72.88053302734374C183.40276810546874,71.67944202734375,185.89705810546874,70.99310302734375,188.47735810546874,70.99310302734375C191.57375810546876,70.99310302734375,194.41215810546876,71.93681902734374,196.82045810546876,73.56687302734375C198.28265810546876,74.59638302734375,199.57275810546875,75.79747302734376,200.60495810546874,77.25594302734375C202.23915810546876,79.65812302734375,200.60495810546874,82.91820302734375,197.68055810546875,82.91820302734375Z" fill="#D6DCE8" fill-opacity="1"/><path d="M202.36175810546874,79.10062302734374Q202.29745810546876,77.76271302734375,201.52625810546874,76.62913302734376L201.51455810546875,76.61221302734376Q199.95855810546874,74.41351302734375,197.44505810546875,72.64401302734375Q193.35955810546875,69.87873302734376,188.47735810546874,69.87873302734376Q184.34135810546874,69.87873302734376,180.70906810546876,71.90764802734375L180.69778810546876,71.91395002734374L180.68665810546875,71.92051202734375Q177.57089810546876,73.75696302734374,175.52987510546876,76.60713302734375Q174.72023810546875,77.73774302734375,174.63054810546876,79.07978302734375Q174.54580810546875,80.34753302734376,175.11713810546874,81.48730302734376Q175.69022810546875,82.63060302734375,176.75550810546875,83.31060302734375Q177.88650810546875,84.03260302734375,179.27424810546876,84.03260302734375L197.68055810546875,84.03260302734375Q199.06685810546875,84.03260302734375,200.19955810546875,83.31130302734375Q201.26225810546876,82.63460302734376,201.84455810546876,81.49490302734375Q202.42245810546876,80.36385302734375,202.36175810546874,79.10062302734374ZM199.68905810546875,77.89088302734375Q198.35625810546875,76.01109302734375,196.19585810546874,74.48972302734376Q192.67615810546874,72.10747302734374,188.47735810546874,72.10747302734374Q184.92805810546875,72.10747302734374,181.80722810546874,73.84712302734376Q179.10493810546876,75.44279302734375,177.34191810546875,77.90474302734376Q176.44337510546876,79.15951302734375,177.10957810546876,80.48853302734375Q177.76890810546874,81.80390302734375,179.27424810546876,81.80390302734375L197.68055810546875,81.80390302734375Q199.18395810546875,81.80390302734375,199.85985810546876,80.48090302734374Q200.54015810546875,79.14940302734375,199.68905810546875,77.89088302734375Z" fill-rule="evenodd" fill="#D6DCE8" fill-opacity="1"/></g><g><g><path d="M194.92724965820312,82.91824634765625C194.92724965820312,82.91824634765625,182.11165775820314,82.91824634765625,182.11165775820314,82.91824634765625C182.0256469582031,82.74666634765624,182.0256469582031,82.57508634765625,182.11165775820314,82.40349634765624C183.05777965820312,79.74393634765624,185.55208965820313,77.85650634765625,188.56246965820313,77.85650634765625C191.57283965820312,77.85650634765625,194.06714965820314,79.74393634765624,195.01324965820314,82.40349634765624C195.01324965820314,82.57508634765625,195.01324965820314,82.74666634765624,194.92724965820312,82.91824634765625Z" fill="#959DAF" fill-opacity="1"/></g><g><path d="M196.82006528320312,74.42490525390625C196.82006528320312,74.42490525390625,196.82006528320312,75.11124525390625,196.82006528320312,75.11124525390625C196.82006528320312,75.62599525390625,196.3900652832031,75.96916525390625,195.95996528320313,75.96916525390625C195.95996528320313,75.96916525390625,182.19827328320312,75.96916525390625,182.19827328320312,75.96916525390625C181.68220828320312,75.96916525390625,181.33816528320312,75.54020525390625,181.33816528320312,75.11124525390625C181.33816528320312,75.11124525390625,181.33816528320312,73.73856525390624,181.33816528320312,73.73856525390624C183.48843528320313,72.53747425390625,185.98274528320312,71.85113525390625,188.56307528320312,71.85113525390625C191.57346528320312,71.85113525390625,194.41176528320312,72.79485125390624,196.82006528320312,74.42490525390625Z" fill="#FFFFFF" fill-opacity="1"/></g></g></g><g><path d="M156.39575,59.148665625C156.39575,60.867375625,155.05781,62.242365625,153.38538,62.242365625C151.71295,62.242365625,150.375,60.867375625,150.375,59.148665625C150.375,57.842445624999996,152.18123,53.923785625,152.98399,52.205072625C153.11779,51.861330125,153.58607,51.861330125,153.78676,52.205072625C154.58953,53.855035625,156.39575,57.773695625,156.39575,59.148665625Z" fill="#BFC9DC" fill-opacity="1"/></g><g><path d="M263.13445624999997,43.1107792578125C264.51062625,44.3976592578125,264.68265625,46.5424692578125,263.39247625,48.0009392578125C262.10231625,49.3736192578125,259.95204625,49.5451992578125,258.48986625,48.2583192578125C257.37172625,47.3145992578125,255.47949225,42.8533992578125,254.70539475,40.8801772578125C254.53337325,40.5370082578125,254.87741325,40.1080466578125,255.30746725,40.1938389578125C257.37172625,40.7085932578125,262.01631625,42.0812692578125,263.13445624999997,43.1107792578125Z" fill="#BFC9DC" fill-opacity="1"/></g><g><path d="M262.61745,58.2959353515625C263.64958,59.9259853515625,263.21953,61.9850053515625,261.58533,63.0145153515625C259.95112,64.0440353515625,257.88686,63.6150353515625,256.85474,61.9850053515625C256.080638,60.7839153515625,255.392551,55.9795453515625,255.13451906,53.8347353515625C255.0485083,53.4057733515625,255.564568,53.1483963515625,255.908611,53.3199809515625C257.71484,54.4352853515625,261.84336,57.0090553515625,262.61745,58.2959353515625Z" fill="#BFC9DC" fill-opacity="1"/></g><g><path d="M149.5129375,66.8699791015625C149.5129375,68.5886891015625,148.1749975,69.9636791015625,146.5025675,69.9636791015625C144.8301375,69.9636791015625,143.4921875,68.5886891015625,143.4921875,66.8699791015625C143.4921875,65.5637591015625,145.2984175,61.6450991015625,146.1011775,59.9263861015625C146.2349775,59.5826435015625,146.7032575,59.5826435015625,146.9039475,59.9263861015625C147.7067175,61.6450991015625,149.5129375,65.5637591015625,149.5129375,66.8699791015625Z" fill="#BFC9DC" fill-opacity="1"/></g><g><path d="M232.9443875,82.9183349609375C232.9443875,82.9183349609375,251.1785875,82.9183349609375,251.1785875,82.9183349609375C252.2967875,82.9183349609375,253.3288875,83.3472979609375,254.10298749999998,84.1194249609375C254.10298749999998,84.1194249609375,267.0045875,96.9882349609375,267.0045875,96.9882349609375C267.7786875,97.7604349609375,268.20878749999997,98.7899349609375,268.20878749999997,99.90523496093749C268.20878749999997,99.90523496093749,268.20878749999997,118.0074349609375,268.20878749999997,118.0074349609375C268.20878749999997,119.12273496093749,267.7786875,120.1522349609375,267.0045875,120.9243349609375C267.0045875,120.9243349609375,254.2749875,133.6216349609375,254.2749875,133.6216349609375C253.5008875,134.3937349609375,252.4687875,134.8227349609375,251.3506875,134.8227349609375C251.3506875,134.8227349609375,232.9443875,134.8227349609375,232.9443875,134.8227349609375C231.8261875,134.8227349609375,230.7940875,134.3937349609375,230.0199875,133.6216349609375C230.0199875,133.6216349609375,216.9463375,120.5811349609375,216.9463375,120.5811349609375C216.1722365,119.80903496093751,215.7421875,118.7795349609375,215.7421875,117.6642349609375C215.7421875,117.6642349609375,215.7421875,99.90523496093749,215.7421875,99.90523496093749C215.7421875,98.7899349609375,216.1722365,97.7604349609375,216.9463375,96.9882349609375C216.9463375,96.9882349609375,229.9339875,84.1194249609375,229.9339875,84.1194249609375C230.7940875,83.3472979609375,231.8261875,82.9183349609375,232.9443875,82.9183349609375Z" fill="url(#master_svg7_2484_10356)" fill-opacity="1"/></g><g><g><path d="M245.07273384765625,93.24975737304688C245.07273384765625,93.24975737304688,245.07273384765625,101.85935737304688,245.07273384765625,101.85935737304688C245.07273384765625,102.43330737304687,245.07272384765625,103.00730737304687,244.98671384765626,103.66330737304688C244.98671384765626,103.66330737304688,244.04059384765625,109.81300737304687,244.04059384765625,109.81300737304687C243.95458384765624,110.30500737304688,243.52453384765624,110.71490737304687,242.92246384765625,110.71490737304687C242.92246384765625,110.71490737304687,241.03021384765626,110.71490737304687,241.03021384765626,110.71490737304687C240.51414384765624,110.71490737304687,239.99809384765626,110.30500737304688,239.91208384765625,109.81300737304687C239.91208384765625,109.81300737304687,238.96595984765625,103.66330737304688,238.96595984765625,103.66330737304688C238.87994909605624,103.08930737304688,238.87994384765625,102.51530737304688,238.87994384765625,101.85935737304688C238.87994384765625,101.85935737304688,238.87994384765625,93.24975737304688,238.87994384765625,93.24975737304688C238.87994384765625,92.67578037304688,239.39601084765624,92.18380737304688,239.99808384765626,92.18380737304688C239.99808384765626,92.18380737304688,244.04059384765625,92.18380737304688,244.04059384765625,92.18380737304688C244.55665384765626,92.26580357304688,245.07273384765625,92.67578037304688,245.07273384765625,93.24975737304688Z" fill="#FFFFFF" fill-opacity="1"/></g><g><path d="M244.03892072265626,123.66965932617188C244.03892072265626,123.66965932617188,239.82440072265624,123.66965932617188,239.82440072265624,123.66965932617188C239.13631572265626,123.66965932617188,238.53424072265625,123.06910932617187,238.53424072265625,122.38276932617188C238.53424072265625,122.38276932617188,238.53424072265625,118.17894932617187,238.53424072265625,118.17894932617187C238.53424072265625,117.49260532617187,239.13631572265626,116.89205932617188,239.82440072265624,116.89205932617188C239.82440072265624,116.89205932617188,244.03892072265626,116.89205932617188,244.03892072265626,116.89205932617188C244.72701072265625,116.89205932617188,245.32909072265625,117.49260532617187,245.32909072265625,118.17894932617187C245.32909072265625,118.17894932617187,245.32909072265625,122.38276932617188,245.32909072265625,122.38276932617188C245.32909072265625,123.06910932617187,244.72701072265625,123.66965932617188,244.03892072265626,123.66965932617188Z" fill="#FFFFFF" fill-opacity="1"/></g></g></g></g></svg>