<?xml version="1.0" encoding="UTF-8"?>
<svg width="41px" height="18px" viewBox="0 0 41 18" version="1.1" xmlns="http://www.w3.org/2000/svg" xmlns:xlink="http://www.w3.org/1999/xlink">
    <title>编组</title>
    <g id="页面-1" stroke="none" stroke-width="1" fill="none" fill-rule="evenodd">
        <g id="MJ颜色" transform="translate(-170.000000, -797.000000)">
            <g id="编组" transform="translate(170.500000, 797.000000)">
                <rect id="矩形" fill="#1AA4EE" x="0" y="0" width="40" height="18" rx="9"></rect>
                <path d="M18.608,9.524 C18.824,9.224 19.244,8.792 19.532,8.564 C18.32,7.556 16.844,5.72 16.088,4.16 L14.984,4.604 C15.896,6.368 17.384,8.336 18.608,9.524 Z M9.644,9.524 C10.928,8.36 12.2,6.524 12.98,4.58 L11.768,4.256 C11.096,5.996 9.92,7.688 8.612,8.72 C8.9,8.912 9.428,9.296 9.644,9.524 Z M17.972,14.912 L19.076,14.3 C18.488,13.208 17.312,11.528 16.292,10.244 L15.224,10.724 C15.644,11.264 16.088,11.9 16.508,12.524 L11.456,12.824 C12.596,11.492 13.736,9.788 14.66,8.036 L13.448,7.52 C12.524,9.5 11.072,11.576 10.592,12.104 C10.148,12.644 9.836,12.98 9.488,13.064 C9.656,13.4 9.86,14.012 9.932,14.252 C10.436,14.048 11.156,14.012 17.192,13.556 C17.516,14.048 17.78,14.528 17.972,14.912 Z M21.548,14.996 C23.684,13.652 24.32,11.828 24.5,9.992 L27.644,9.992 L27.644,14.96 L28.808,14.96 L28.808,9.992 L31.376,9.992 L31.376,8.924 L28.808,8.924 L28.808,5.732 L31.004,5.732 L31.004,4.676 L21.068,4.676 L21.068,5.732 L23.432,5.732 L23.432,8.924 L23.432,8.924 L20.66,8.924 L20.66,9.992 L23.348,9.992 C23.156,11.504 22.532,13.016 20.648,14.168 C20.924,14.348 21.356,14.744 21.548,14.996 Z M27.644,8.924 L24.572,8.924 L24.572,5.732 L27.644,5.732 L27.644,8.924 Z" id="公开" fill="#FFFFFF" fill-rule="nonzero"></path>
            </g>
        </g>
    </g>
</svg>