<?xml version="1.0" encoding="UTF-8"?>
<svg width="65px" height="18px" viewBox="0 0 65 18" version="1.1" xmlns="http://www.w3.org/2000/svg" xmlns:xlink="http://www.w3.org/1999/xlink">
    <title>编组 5备份</title>
    <g id="页面-1" stroke="none" stroke-width="1" fill="none" fill-rule="evenodd">
        <g id="MJ颜色" transform="translate(-290.000000, -842.000000)">
            <g id="编组备份-3" transform="translate(290.500000, 842.000000)">
                <rect id="矩形" fill="#224ECD" x="0" y="0" width="64" height="18" rx="9"></rect>
                <path d="M13.34,12.308 C15.512,11.3 17.36,9.584 18.416,7.712 L17.36,7.364 C17.18,7.712 16.94,8.084 16.688,8.42 L14.852,8.516 C15.26,7.904 15.752,7.112 16.136,6.488 L19.46,6.488 L19.46,5.468 L16.964,5.468 C16.88,5.024 16.592,4.364 16.292,3.86 L15.248,4.184 C15.452,4.58 15.656,5.072 15.764,5.468 L12.788,5.468 L12.788,6.488 L14.96,6.488 C14.8725714,6.62685714 14.7774286,6.77893878 14.6798848,6.93432653 L14.4831706,7.24657143 C14.1880204,7.71273469 13.9031429,8.14914286 13.772,8.288 C13.556,8.516 13.172,8.6 12.92,8.66 C13.004,8.9 13.172,9.428 13.22,9.68 C13.448,9.596 13.832,9.536 15.812,9.38 C14.96,10.22 13.88,10.94 12.728,11.444 C12.92,11.66 13.22,12.056 13.34,12.308 Z M11.288,14.948 L11.288,9.056 C11.576,9.608 11.864,10.208 12.008,10.556 L12.668,9.776 C12.464,9.452 11.6,8.12 11.288,7.676 L11.288,7.232 L12.56,7.232 L12.56,6.2 L11.288,6.2 L11.288,3.944 L10.22,3.944 L10.22,6.2 L8.696,6.2 L8.696,7.232 L10.172,7.232 C9.836,8.78 9.14,10.58 8.396,11.528 C8.6,11.828 8.84,12.32 8.96,12.632 C9.416,11.96 9.872,10.916 10.22,9.8 L10.22,14.948 L11.288,14.948 Z M12.776,14.96 C14.252,14.468 15.572,13.772 16.688,12.908 C17.456,13.556 18.284,14.324 18.716,14.84 L19.58,14.096 C19.112,13.592 18.236,12.848 17.456,12.236 C18.2,11.552 18.824,10.796 19.304,9.956 L18.164,9.548 C17.156,11.492 14.9,13.184 12.128,14.024 C12.332,14.264 12.644,14.696 12.776,14.96 Z M27.26,7.676 L28.088,6.824 C27.38,6.068 25.916,4.988 24.812,4.256 L24.056,5 C25.172,5.768 26.6,6.932 27.26,7.676 Z M27.584,14.72 C28.976,14.72 29.3,14.036 29.432,11.78 C29.144,11.708 28.652,11.504 28.388,11.3 C28.304,13.28 28.196,13.676 27.512,13.676 L25.484,13.676 C24.848,13.676 24.716,13.58 24.716,13.016 L24.716,7.292 L23.564,7.292 L23.564,13.016 C23.564,14.336 23.96,14.72 25.364,14.72 L27.584,14.72 Z M30.476,12.68 L31.592,12.212 C31.34,10.988 30.704,9.176 30.008,7.748 L28.976,8.156 C29.624,9.572 30.26,11.456 30.476,12.68 Z M21.668,13.112 C22.124,11.804 22.472,9.776 22.652,8.3 L21.56,8.096 C21.404,9.584 21.02,11.408 20.552,12.644 L21.668,13.112 Z M39.259,8.612 L38.624,9.272 C39.38,9.824 40.412,10.628 40.916,11.096 L41.588,10.352 C41.1128,9.9416 40.2002,9.2882 39.488804,8.776712 L39.259,8.612 Z M36.668,13.976 L36.668,13.448 L40.208,13.448 L40.208,10.652 L35.852,10.652 C36.452,10.184 37.088,9.62 37.556,9.104 L36.764,8.732 C36.224,9.284 35.384,9.848 34.676,10.256 C34.82,10.46 35.072,10.976 35.144,11.156 C35.336,11.048 35.528,10.904 35.732,10.748 L35.732,13.976 L36.668,13.976 Z M39.296,12.644 L36.668,12.644 L36.668,11.456 L39.296,11.456 L39.296,12.644 Z M39.26,8.612 L41.624,8.612 L41.624,13.808 C41.624,13.988 41.552,14.048 41.348,14.048 C41.292,14.052 41.1786667,14.0546667 41.0271111,14.0555556 L40.7735,14.0555 C40.496,14.054 40.154,14.048 39.812,14.036 C39.956,14.276 40.088,14.624 40.136,14.888 C41.132,14.888 41.756,14.876 42.14,14.732 C42.524,14.588 42.656,14.36 42.656,13.808 L42.656,7.712 L40.064,7.712 C40.352,7.304 40.652,6.836 40.928,6.38 L39.728,6.128 C39.548,6.584 39.236,7.232 38.96,7.712 L36.068,7.712 L36.992,7.352 C36.86,7.04 36.548,6.5 36.32,6.104 L43.268,6.104 L43.268,5.156 L38.9,5.156 C38.744,4.772 38.516,4.268 38.312,3.872 L37.208,4.16 C37.352,4.46 37.508,4.832 37.628,5.156 L32.768,5.156 L32.768,6.104 L36.056,6.104 L35.264,6.38 C35.48,6.776 35.78,7.352 35.924,7.712 L33.392,7.712 L33.392,14.924 L34.448,14.924 L34.448,8.612 L39.26,8.612 L39.26,8.612 Z M46.04,7.304 L46.04,5.9 L53.936,5.9 L53.936,7.304 L55.076,7.304 L55.076,4.904 L50.636,4.904 C50.54,4.568 50.408,4.136 50.252,3.8 L49.184,3.98 C49.292,4.256 49.4,4.604 49.472,4.904 L44.948,4.904 L44.948,7.304 L46.04,7.304 Z M50.192,7.832 L50.768,7.1 C50.324,6.716 49.412,6.224 48.692,5.936 L48.152,6.584 C48.884,6.896 49.76,7.436 50.192,7.832 Z M45.128,11.396 C46.064,11.12 47.012,10.784 47.924,10.4 C48.188,10.58 48.62,10.652 49.316,10.652 L51.704,10.652 C52.808,10.652 53.108,10.316 53.24,8.888 C52.964,8.84 52.556,8.696 52.328,8.54 C52.28,9.608 52.172,9.776 51.62,9.776 L49.232,9.776 C50.756,8.984 52.088,8.012 53.072,6.812 L52.136,6.332 C51.284,7.4 50.024,8.288 48.584,9.008 L48.584,7.208 L47.588,7.208 L47.588,9.452 C46.604,9.872 45.548,10.208 44.48,10.46 C44.672,10.688 44.984,11.144 45.128,11.396 Z M45.488,9.968 C46.172,9.404 46.688,8.516 47.048,7.76 L46.148,7.352 C45.824,8.072 45.248,8.9 44.6,9.428 L45.488,9.968 Z M54.62,10.16 L55.472,9.572 C55.076,8.948 54.2,8.036 53.468,7.412 L52.676,7.952 C53.396,8.612 54.248,9.56 54.62,10.16 Z M54.164,14.9 L54.164,11.456 L53.048,11.456 L53.048,13.388 L50.54,13.388 L50.54,10.988 L49.412,10.988 L49.412,13.388 L47.012,13.388 L47.012,11.6 L45.92,11.6 L45.92,14.444 L53.048,14.444 L53.048,14.9 L54.164,14.9 Z" id="核心商密" fill="#FFFFFF" fill-rule="nonzero"></path>
            </g>
        </g>
    </g>
</svg>