<?xml version="1.0" encoding="UTF-8"?>
<svg width="41px" height="18px" viewBox="0 0 41 18" version="1.1" xmlns="http://www.w3.org/2000/svg" xmlns:xlink="http://www.w3.org/1999/xlink">
    <title>编组备份 5</title>
    <g id="页面-1" stroke="none" stroke-width="1" fill="none" fill-rule="evenodd">
        <g id="MJ颜色" transform="translate(-466.000000, -797.000000)">
            <g id="编组备份-5" transform="translate(466.500000, 797.000000)">
                <rect id="矩形" fill="#7A0000" x="0" y="0" width="40" height="18" rx="9"></rect>
                <path d="M11.648,14.948 L11.648,9.044 C12.056,9.656 12.512,10.388 12.752,10.82 L13.364,9.74 C13.124,9.416 12.056,8.096 11.648,7.628 L11.648,7.268 L13.172,7.268 L13.172,6.212 L11.648,6.212 L11.648,3.932 L10.532,3.932 L10.532,6.212 L8.648,6.212 L8.648,7.268 L10.424,7.268 C10.028,8.828 9.236,10.628 8.444,11.684 C8.624,11.948 8.9,12.368 9.032,12.692 C9.584,11.96 10.112,10.868 10.532,9.704 L10.532,14.948 L11.648,14.948 Z M12.932,14.972 C14.636,13.244 14.912,10.448 14.912,8.444 L14.912,5.672 L16.808,5.672 L16.808,13.064 C16.808,14.084 16.892,14.336 17.084,14.54 C17.288,14.72 17.588,14.804 17.816,14.804 L18.428,14.804 C18.692,14.804 18.932,14.744 19.112,14.612 C19.28,14.48 19.4,14.276 19.448,13.928 C19.52,13.604 19.568,12.752 19.568,12.092 C19.28,11.984 18.956,11.804 18.728,11.624 C18.728,12.38 18.716,12.98 18.692,13.256 C18.68,13.52 18.656,13.628 18.596,13.7 C18.548,13.748 18.476,13.772 18.392,13.772 L18.152,13.772 C18.068,13.772 18.02,13.748 17.972,13.7 C17.9405,13.658 17.927375,13.50575 17.9245859,13.2191328 L17.924,4.616 L13.784,4.616 L13.784,8.444 C13.784,10.256 13.628,12.62 12.032,14.228 C12.296,14.372 12.752,14.756 12.932,14.972 Z M22.04,7.304 L22.04,5.9 L29.936,5.9 L29.936,7.304 L31.076,7.304 L31.076,4.904 L26.636,4.904 C26.54,4.568 26.408,4.136 26.252,3.8 L25.184,3.98 C25.292,4.256 25.4,4.604 25.472,4.904 L20.948,4.904 L20.948,7.304 L22.04,7.304 Z M26.192,7.832 L26.768,7.1 C26.324,6.716 25.412,6.224 24.692,5.936 L24.152,6.584 C24.884,6.896 25.76,7.436 26.192,7.832 Z M21.128,11.396 C22.064,11.12 23.012,10.784 23.924,10.4 C24.188,10.58 24.62,10.652 25.316,10.652 L27.704,10.652 C28.808,10.652 29.108,10.316 29.24,8.888 C28.964,8.84 28.556,8.696 28.328,8.54 C28.28,9.608 28.172,9.776 27.62,9.776 L25.232,9.776 C26.756,8.984 28.088,8.012 29.072,6.812 L28.136,6.332 C27.284,7.4 26.024,8.288 24.584,9.008 L24.584,7.208 L23.588,7.208 L23.588,9.452 C22.604,9.872 21.548,10.208 20.48,10.46 C20.672,10.688 20.984,11.144 21.128,11.396 Z M21.488,9.968 C22.172,9.404 22.688,8.516 23.048,7.76 L22.148,7.352 C21.824,8.072 21.248,8.9 20.6,9.428 L21.488,9.968 Z M30.62,10.16 L31.472,9.572 C31.076,8.948 30.2,8.036 29.468,7.412 L28.676,7.952 C29.396,8.612 30.248,9.56 30.62,10.16 Z M30.164,14.9 L30.164,11.456 L29.048,11.456 L29.048,13.388 L26.54,13.388 L26.54,10.988 L25.412,10.988 L25.412,13.388 L23.012,13.388 L23.012,11.6 L21.92,11.6 L21.92,14.444 L29.048,14.444 L29.048,14.9 L30.164,14.9 Z" id="机密" fill="#FFFFFF" fill-rule="nonzero"></path>
            </g>
        </g>
    </g>
</svg>