<?xml version="1.0" encoding="UTF-8"?>
<svg width="41px" height="18px" viewBox="0 0 41 18" version="1.1" xmlns="http://www.w3.org/2000/svg" xmlns:xlink="http://www.w3.org/1999/xlink">
    <title>编组备份 4</title>
    <g id="页面-1" stroke="none" stroke-width="1" fill="none" fill-rule="evenodd">
        <g id="MJ颜色" transform="translate(-414.000000, -797.000000)">
            <g id="编组备份-4" transform="translate(414.500000, 797.000000)">
                <rect id="矩形" fill="#D40000" x="0" y="0" width="40" height="18" rx="9"></rect>
                <path d="M16.412,6.464 L17.12,5.612 C16.628,5.12 15.596,4.388 14.852,3.92 L14.192,4.676 C14.936,5.192 15.932,5.96 16.412,6.464 Z M11.288,14.96 L11.288,9.932 C11.552,10.46 11.84,11.048 11.984,11.384 L12.632,10.508 C12.548,10.808 12.44,11.084 12.344,11.324 L13.208,11.624 C13.616,10.652 13.856,9.02 13.976,7.796 L13.136,7.592 C13.052,8.516 12.896,9.596 12.644,10.484 C12.44,10.16 11.588,8.972 11.288,8.588 L11.288,8.36 L12.62,8.36 L12.62,7.328 L11.288,7.328 L11.288,5.36 C11.768,5.24 12.236,5.084 12.632,4.916 L11.96,4.016 C11.168,4.4 9.896,4.736 8.78,4.964 C8.888,5.216 9.032,5.576 9.092,5.828 C9.464,5.768 9.86,5.696 10.256,5.612 L10.256,7.328 L8.708,7.328 L8.708,8.36 L10.136,8.36 C9.74,9.62 9.056,11.06 8.408,11.876 C8.6,12.176 8.864,12.656 8.972,12.968 C9.428,12.344 9.884,11.42 10.256,10.448 L10.256,14.96 L11.288,14.96 Z M17.372,14.816 C18.344,14.816 18.608,14.288 18.728,12.56 C18.44,12.488 18.02,12.32 17.78,12.128 C17.72,13.544 17.66,13.844 17.276,13.844 L16.004,13.844 C15.596,13.844 15.536,13.76 15.536,13.268 L15.536,12.2 C16.34,11.132 17.012,9.92 17.6,8.588 C18.02,9.656 18.416,10.988 18.548,11.876 L19.568,11.588 C19.4,10.628 18.956,9.2 18.464,8.096 L17.72,8.3 C18.164,7.232 18.548,6.104 18.884,4.892 L17.816,4.688 C17.276,6.788 16.532,8.672 15.536,10.292 L15.536,6.62 L14.48,6.62 L14.48,11.792 C13.808,12.632 13.04,13.352 12.176,13.952 C12.44,14.12 12.908,14.504 13.076,14.708 C13.568,14.324 14.048,13.916 14.48,13.46 C14.516,14.516 14.816,14.816 15.872,14.816 L17.372,14.816 Z M22.04,7.304 L22.04,5.9 L29.936,5.9 L29.936,7.304 L31.076,7.304 L31.076,4.904 L26.636,4.904 C26.54,4.568 26.408,4.136 26.252,3.8 L25.184,3.98 C25.292,4.256 25.4,4.604 25.472,4.904 L20.948,4.904 L20.948,7.304 L22.04,7.304 Z M26.192,7.832 L26.768,7.1 C26.324,6.716 25.412,6.224 24.692,5.936 L24.152,6.584 C24.884,6.896 25.76,7.436 26.192,7.832 Z M21.128,11.396 C22.064,11.12 23.012,10.784 23.924,10.4 C24.188,10.58 24.62,10.652 25.316,10.652 L27.704,10.652 C28.808,10.652 29.108,10.316 29.24,8.888 C28.964,8.84 28.556,8.696 28.328,8.54 C28.28,9.608 28.172,9.776 27.62,9.776 L25.232,9.776 C26.756,8.984 28.088,8.012 29.072,6.812 L28.136,6.332 C27.284,7.4 26.024,8.288 24.584,9.008 L24.584,7.208 L23.588,7.208 L23.588,9.452 C22.604,9.872 21.548,10.208 20.48,10.46 C20.672,10.688 20.984,11.144 21.128,11.396 Z M21.488,9.968 C22.172,9.404 22.688,8.516 23.048,7.76 L22.148,7.352 C21.824,8.072 21.248,8.9 20.6,9.428 L21.488,9.968 Z M30.62,10.16 L31.472,9.572 C31.076,8.948 30.2,8.036 29.468,7.412 L28.676,7.952 C29.396,8.612 30.248,9.56 30.62,10.16 Z M30.164,14.9 L30.164,11.456 L29.048,11.456 L29.048,13.388 L26.54,13.388 L26.54,10.988 L25.412,10.988 L25.412,13.388 L23.012,13.388 L23.012,11.6 L21.92,11.6 L21.92,14.444 L29.048,14.444 L29.048,14.9 L30.164,14.9 Z" id="秘密" fill="#FFFFFF" fill-rule="nonzero"></path>
            </g>
        </g>
    </g>
</svg>