<?xml version="1.0" encoding="UTF-8"?>
<svg width="41px" height="18px" viewBox="0 0 41 18" version="1.1" xmlns="http://www.w3.org/2000/svg" xmlns:xlink="http://www.w3.org/1999/xlink">
    <title>编组 4备份</title>
    <g id="页面-1" stroke="none" stroke-width="1" fill="none" fill-rule="evenodd">
        <g id="MJ颜色" transform="translate(-359.000000, -842.000000)">
            <g id="编组备份-2" transform="translate(359.500000, 842.000000)">
                <rect id="矩形" fill="#FE8624" x="0" y="0" width="40" height="18" rx="9"></rect>
                <path d="M10.304,14.972 L10.304,7.028 L13.424,7.028 C13.364,8.564 12.956,10.436 10.46,11.756 C10.724,11.96 11.108,12.356 11.252,12.596 C12.728,11.732 13.568,10.676 14.036,9.584 C15.032,10.544 16.1,11.672 16.652,12.404 L17.564,11.672 C16.868,10.82 15.488,9.5 14.384,8.504 C14.492,7.988 14.552,7.496 14.576,7.028 L17.744,7.028 L17.744,13.568 C17.744,13.784 17.672,13.844 17.444,13.856 C17.216,13.868 16.4,13.868 15.62,13.832 C15.776,14.132 15.956,14.648 16.004,14.96 C17.06,14.96 17.804,14.948 18.248,14.756 C18.692,14.576 18.848,14.24 18.848,13.58 L18.848,5.948 L14.588,5.948 L14.588,3.932 L13.436,3.932 L13.436,5.948 L9.188,5.948 L9.188,14.972 L10.304,14.972 Z M26.612,6.296 L26.612,5.3 L24.488,5.3 C24.356,4.88 24.116,4.316 23.888,3.86 L22.88,4.148 C23.036,4.496 23.204,4.928 23.324,5.3 L20.948,5.3 L20.948,6.296 L26.612,6.296 Z M28.412,14.9 L28.412,5.54 L30.068,5.54 C29.78,6.464 29.336,7.712 28.94,8.672 C29.936,9.692 30.224,10.544 30.224,11.252 C30.224,11.66 30.152,11.996 29.924,12.14 C29.804,12.212 29.636,12.248 29.456,12.26 C29.252,12.26 28.964,12.26 28.652,12.224 C28.82,12.524 28.916,12.992 28.928,13.28 C29.276,13.292 29.636,13.292 29.924,13.256 C30.2,13.22 30.464,13.136 30.668,12.992 C31.076,12.704 31.244,12.128 31.244,11.36 C31.244,10.568 31.016,9.632 29.996,8.54 C30.476,7.46 31.004,6.092 31.424,4.976 L30.644,4.484 L30.476,4.532 L27.428,4.532 L27.428,14.9 L28.412,14.9 Z M26.888,9.512 L26.888,8.504 L25.304,8.504 C25.568,7.928 25.868,7.208 26.132,6.548 L25.028,6.296 C24.86,6.956 24.536,7.868 24.236,8.504 L22.46,8.504 L23.336,8.252 C23.216,7.724 22.916,6.932 22.604,6.332 L21.632,6.584 C21.92,7.184 22.208,7.976 22.316,8.504 L20.624,8.504 L20.624,9.512 L26.888,9.512 Z M22.304,14.888 L22.304,14.336 L25.256,14.336 L25.256,14.804 L26.36,14.804 L26.36,10.496 L21.248,10.496 L21.248,14.888 L22.304,14.888 Z M25.256,13.364 L22.304,13.364 L22.304,11.504 L25.256,11.504 L25.256,13.364 Z" id="内部" fill="#FFFFFF" fill-rule="nonzero"></path>
            </g>
        </g>
    </g>
</svg>