<?xml version="1.0" encoding="UTF-8"?>
<svg width="65px" height="18px" viewBox="0 0 65 18" version="1.1" xmlns="http://www.w3.org/2000/svg" xmlns:xlink="http://www.w3.org/1999/xlink">
    <title>编组备份</title>
    <g id="页面-1" stroke="none" stroke-width="1" fill="none" fill-rule="evenodd">
        <g id="MJ颜色" transform="translate(-218.000000, -797.000000)">
            <g id="编组备份" transform="translate(218.500000, 797.000000)">
                <rect id="矩形" fill="#1E89FF" x="0" y="0" width="64" height="18" rx="9"></rect>
                <path d="M19.376,9.344 L19.376,8.42 L15.668,8.42 L15.668,6.248 L18.788,6.248 L18.788,5.336 L16.52,5.336 C16.76,5.012 17,4.628 17.216,4.244 L16.112,3.896 C15.932,4.328 15.584,4.916 15.308,5.336 L12.08,5.336 L12.572,5.12 C12.44,4.76 12.092,4.268 11.744,3.896 L10.772,4.268 C11.036,4.58 11.3,5 11.468,5.336 L9.308,5.336 L9.308,6.248 L12.284,6.248 L12.284,8.42 L8.648,8.42 L8.648,9.344 L19.376,9.344 Z M14.612,8.42 L13.316,8.42 L13.316,6.248 L14.612,6.248 L14.612,8.42 Z M17.156,8.384 C17.48,7.928 17.852,7.244 18.176,6.584 L17.156,6.272 C16.964,6.824 16.58,7.604 16.292,8.096 L17.156,8.384 Z M10.628,8.396 L11.588,8.012 C11.456,7.52 11.096,6.812 10.7,6.296 L9.788,6.644 C10.16,7.184 10.496,7.916 10.628,8.396 Z M11.3,14.936 L11.3,14.552 L16.712,14.552 L16.712,14.888 L17.852,14.888 L17.852,9.98 L10.208,9.98 L10.208,14.936 L11.3,14.936 Z M16.712,11.828 L11.3,11.828 L11.3,10.844 L16.712,10.844 L16.712,11.828 Z M16.712,13.676 L11.3,13.676 L11.3,12.68 L16.712,12.68 L16.712,13.676 Z M30.56,12.932 C30.896,12.788 30.992,12.536 30.992,12.032 L30.992,6.908 L29.444,6.908 C29.228,6.776 28.976,6.644 28.676,6.512 C29.528,6.032 30.356,5.42 30.98,4.808 L30.308,4.28 L30.092,4.34 L24.416,4.34 L24.416,5.204 L29.084,5.204 C28.676,5.504 28.196,5.828 27.728,6.056 C27.152,5.816 26.564,5.588 26.06,5.42 L25.34,6.032 C25.976,6.272 26.732,6.596 27.392,6.908 L24.368,6.908 L24.368,13.064 L25.412,13.064 L25.412,11.168 L27.14,11.168 L27.14,13.016 L28.148,13.016 L28.148,11.168 L29.936,11.168 L29.936,12.02 C29.936,12.164 29.888,12.212 29.744,12.212 C29.7,12.212 29.6186667,12.2133333 29.5115556,12.2142222 L29.2663868,12.2148807 C29.0845926,12.2142222 28.8706667,12.2106667 28.652,12.2 C28.784,12.452 28.916,12.824 28.952,13.1 C29.708,13.1 30.212,13.088 30.56,12.932 Z M22.796,7.088 L23.588,6.332 C23.156,5.792 22.208,4.952 21.512,4.376 L20.744,5.036 C21.452,5.66 22.376,6.536 22.796,7.088 Z M27.14,8.612 L25.412,8.612 L25.412,7.748 L27.14,7.748 L27.14,8.612 Z M29.936,8.612 L28.148,8.612 L28.148,7.748 L29.936,7.748 L29.936,8.612 Z M21.152,14.852 C21.716,14.084 22.304,13.4 22.688,13.4 C22.952,13.4 23.348,13.784 23.828,14.06 C24.668,14.552 25.64,14.684 27.104,14.684 C28.388,14.684 30.428,14.624 31.292,14.564 C31.304,14.276 31.472,13.772 31.592,13.484 C30.368,13.628 28.496,13.736 27.14,13.736 C25.832,13.736 24.8,13.652 24.02,13.184 C23.648,12.956 23.42,12.776 23.204,12.644 L23.204,8.432 L20.528,8.432 L20.528,9.464 L22.136,9.464 L22.136,12.62 C21.62,12.836 21.032,13.328 20.468,13.928 L21.152,14.852 Z M29.936,10.328 L28.148,10.328 L28.148,9.428 L29.936,9.428 L29.936,10.328 Z M27.14,10.328 L25.412,10.328 L25.412,9.428 L27.14,9.428 L27.14,10.328 Z M39.259,8.612 L38.624,9.272 C39.38,9.824 40.412,10.628 40.916,11.096 L41.588,10.352 C41.1128,9.9416 40.2002,9.2882 39.488804,8.776712 L39.259,8.612 Z M36.668,13.976 L36.668,13.448 L40.208,13.448 L40.208,10.652 L35.852,10.652 C36.452,10.184 37.088,9.62 37.556,9.104 L36.764,8.732 C36.224,9.284 35.384,9.848 34.676,10.256 C34.82,10.46 35.072,10.976 35.144,11.156 C35.336,11.048 35.528,10.904 35.732,10.748 L35.732,13.976 L36.668,13.976 Z M39.296,12.644 L36.668,12.644 L36.668,11.456 L39.296,11.456 L39.296,12.644 Z M39.26,8.612 L41.624,8.612 L41.624,13.808 C41.624,13.988 41.552,14.048 41.348,14.048 C41.292,14.052 41.1786667,14.0546667 41.0271111,14.0555556 L40.7735,14.0555 C40.496,14.054 40.154,14.048 39.812,14.036 C39.956,14.276 40.088,14.624 40.136,14.888 C41.132,14.888 41.756,14.876 42.14,14.732 C42.524,14.588 42.656,14.36 42.656,13.808 L42.656,7.712 L40.064,7.712 C40.352,7.304 40.652,6.836 40.928,6.38 L39.728,6.128 C39.548,6.584 39.236,7.232 38.96,7.712 L36.068,7.712 L36.992,7.352 C36.86,7.04 36.548,6.5 36.32,6.104 L43.268,6.104 L43.268,5.156 L38.9,5.156 C38.744,4.772 38.516,4.268 38.312,3.872 L37.208,4.16 C37.352,4.46 37.508,4.832 37.628,5.156 L32.768,5.156 L32.768,6.104 L36.056,6.104 L35.264,6.38 C35.48,6.776 35.78,7.352 35.924,7.712 L33.392,7.712 L33.392,14.924 L34.448,14.924 L34.448,8.612 L39.26,8.612 L39.26,8.612 Z M46.04,7.304 L46.04,5.9 L53.936,5.9 L53.936,7.304 L55.076,7.304 L55.076,4.904 L50.636,4.904 C50.54,4.568 50.408,4.136 50.252,3.8 L49.184,3.98 C49.292,4.256 49.4,4.604 49.472,4.904 L44.948,4.904 L44.948,7.304 L46.04,7.304 Z M50.192,7.832 L50.768,7.1 C50.324,6.716 49.412,6.224 48.692,5.936 L48.152,6.584 C48.884,6.896 49.76,7.436 50.192,7.832 Z M45.128,11.396 C46.064,11.12 47.012,10.784 47.924,10.4 C48.188,10.58 48.62,10.652 49.316,10.652 L51.704,10.652 C52.808,10.652 53.108,10.316 53.24,8.888 C52.964,8.84 52.556,8.696 52.328,8.54 C52.28,9.608 52.172,9.776 51.62,9.776 L49.232,9.776 C50.756,8.984 52.088,8.012 53.072,6.812 L52.136,6.332 C51.284,7.4 50.024,8.288 48.584,9.008 L48.584,7.208 L47.588,7.208 L47.588,9.452 C46.604,9.872 45.548,10.208 44.48,10.46 C44.672,10.688 44.984,11.144 45.128,11.396 Z M45.488,9.968 C46.172,9.404 46.688,8.516 47.048,7.76 L46.148,7.352 C45.824,8.072 45.248,8.9 44.6,9.428 L45.488,9.968 Z M54.62,10.16 L55.472,9.572 C55.076,8.948 54.2,8.036 53.468,7.412 L52.676,7.952 C53.396,8.612 54.248,9.56 54.62,10.16 Z M54.164,14.9 L54.164,11.456 L53.048,11.456 L53.048,13.388 L50.54,13.388 L50.54,10.988 L49.412,10.988 L49.412,13.388 L47.012,13.388 L47.012,11.6 L45.92,11.6 L45.92,14.444 L53.048,14.444 L53.048,14.9 L54.164,14.9 Z" id="普通商密" fill="#FFFFFF" fill-rule="nonzero"></path>
            </g>
        </g>
    </g>
</svg>