<?xml version="1.0" encoding="UTF-8"?>
<svg width="33px" height="32px" viewBox="0 0 33 32" version="1.1" xmlns="http://www.w3.org/2000/svg" xmlns:xlink="http://www.w3.org/1999/xlink">
    <title>编组备份 3</title>
    <g id="页面-1" stroke="none" stroke-width="1" fill="none" fill-rule="evenodd">
        <g id="门户首页标注版本备份" transform="translate(-23.000000, -12.000000)" fill="#FFFFFF" fill-rule="nonzero">
            <g id="编组备份-3" transform="translate(23.500000, 11.998475)">
                <path d="M32,0 C30.7413649,3.08037036 29.5785079,5.89144161 28.685993,8.68956213 C30.1978692,11.0995124 30.9968441,13.8782031 30.992783,16.7121615 C30.992783,25.1529932 24.0546477,31.995933 15.4963914,31.995933 C6.93774892,31.995933 -1.59872116e-14,25.1529932 -1.59872116e-14,16.7121615 C-1.59872116e-14,8.27094868 6.93774892,1.42838987 15.4963914,1.42838987 C19.0796815,1.4232289 22.5530895,2.64819272 25.3206209,4.89309233 C28.4249198,3.04380357 30.5853389,1.37544423 32,0 Z M17.4629367,2.69601578 C10.6646069,2.69601578 5.15310534,8.13191872 5.15310534,14.8373521 C5.15310534,21.5427855 10.6642207,26.978666 17.4629367,26.978666 C24.2612664,26.978666 29.7731658,21.5427855 29.7731658,14.8373521 C29.7750263,12.9462446 29.3268577,11.0810999 28.4646986,9.39194904 C27.54206,12.4456561 26.9627555,15.5100285 26.9627555,18.9183572 L26.9627555,18.9183572 L18.2310942,16.7182559 L28.792585,3.89855209 L26.531367,5.5817667 L21.6439692,9.7416189 L16.5514977,12.0476115 L13.5190326,15.5305974 L5.73820271,13.5697037 C14.2864177,10.6211262 20.4892226,7.71901884 24.8838254,5.15096432 C22.7487159,3.55472621 20.1421232,2.69243161 17.4629367,2.69601578 Z M22.0663443,20.766739 C22.4602719,20.766739 22.7802418,20.8815609 23.0262635,21.1112082 C23.172705,21.2469745 23.2825345,21.4419551 23.3557552,21.6961558 L22.712148,21.8478089 C22.6740732,21.6831561 22.5946299,21.5531691 22.4738157,21.4578438 C22.3530015,21.3625185 22.2061961,21.3148566 22.0333951,21.3148566 C21.7946954,21.3148566 21.6010295,21.3993482 21.4523913,21.5683339 C21.3037532,21.7373196 21.2294353,22.0110146 21.2294353,22.389427 C21.2294353,22.7909486 21.3026549,23.0769202 21.4490964,23.2473502 C21.5955379,23.4177802 21.785909,23.502994 22.0202154,23.502994 C22.1930164,23.502994 22.3416523,23.4488327 22.4661276,23.3405085 C22.5906028,23.2321844 22.6799308,23.0617569 22.7341142,22.829221 L23.3645417,23.02637 C23.2678903,23.3730074 23.1071731,23.630454 22.8823854,23.7987175 C22.6575977,23.9669811 22.3724072,24.0511116 22.0268052,24.0511116 C21.5991961,24.0511116 21.2477417,23.9070426 20.9724317,23.6189003 C20.6971217,23.330758 20.5594688,22.936825 20.5594688,22.4370894 C20.5594688,21.9084675 20.6978539,21.497925 20.9746283,21.2054497 C21.2514028,20.9129745 21.6153044,20.766739 22.0663443,20.766739 Z M13.9538372,20.8209008 L15.2432482,23.9969498 L14.5359392,23.9969498 L14.254773,23.2755144 L12.9675586,23.2755144 L12.7017686,23.9969498 L12.0120326,23.9969498 L13.2662978,20.8209008 L13.9538372,20.8209008 Z M16.0195245,20.8209008 L16.8344673,23.1715237 L17.6230509,20.8209008 L18.3127869,20.8209008 L17.1595658,23.9969498 L16.4654366,23.9969498 L15.3144122,20.8209008 L16.0195245,20.8209008 Z M19.6645754,20.8209008 L19.6645754,23.9969498 L19.0143784,23.9969498 L19.0143784,20.8209008 L19.6645754,20.8209008 Z M13.6023794,21.5618345 L13.1674503,22.7403956 L14.0460949,22.7403956 L13.6023794,21.5618345 Z M27.6389969,4.99593641 L26.866591,5.93219833 L17.3725652,17.4579713 L12.0947163,17.4579713 L16.6322141,12.2205419 L21.7494026,9.90350307 L26.6576553,5.72612931 L27.6389969,4.99593641 Z" id="新标志"></path>
            </g>
        </g>
    </g>
</svg>