<?xml version="1.0" encoding="utf-8"?>
<!-- Generator: Adobe Illustrator 21.1.0, SVG Export Plug-In . SVG Version: 6.00 Build 0)  -->
<svg version="1.1" id="图层_1" xmlns="http://www.w3.org/2000/svg" xmlns:xlink="http://www.w3.org/1999/xlink" x="0px" y="0px"
	 viewBox="0 0 90 24" style="enable-background:new 0 0 90 24;" xml:space="preserve">
<style type="text/css">
	.st0{fill:#1D2129;}
	.st1{clip-path:url(#SVGID_2_);}
	.st2{clip-path:url(#SVGID_4_);}
	.st3{fill:#FFFFFF;}
	.st4{fill:none;stroke:#3F5468;stroke-width:1.5;stroke-linejoin:round;}
	.st5{fill:#9AA9B5;}
</style>
<desc>Created with Pixso.</desc>
<path id="不通过" class="st0" d="M45.3,12.5h3v0.9h-3V18h-1v-4.5h-3.7c-0.2,1.7-0.9,3.4-3.2,4.6c-0.1-0.2-0.5-0.6-0.7-0.8
	c2.1-1,2.7-2.4,2.9-3.9h-2.9v-0.9h3V9.7h-2.5V8.8h6.7c0.4-0.8,0.9-1.9,1.2-2.7l1.1,0.3c-0.4,0.8-0.8,1.7-1.2,2.4h2.9v0.9h-2.6V12.5z
	 M39.8,6.1c0.6,0.7,1.2,1.6,1.4,2.3l-0.9,0.4c-0.2-0.6-0.8-1.6-1.3-2.3L39.8,6.1z M49.5,9c1.1-0.7,2.4-1.9,3-2.8l0.9,0.4
	c-0.9,1.2-2.2,2.4-3.4,3.3C49.9,9.5,49.6,9.1,49.5,9z M54.7,6.9H61v0.9h-6.4V6.9z M72.8,17h-1.3l-0.9-2.9h-3.5L66.2,17H65l3.2-9.5
	h1.3L72.8,17z M75.2,17h-1.1V7.5h1.2l3.5,6l1,2h0.1c-0.1-1-0.2-2-0.2-3v-5h1.1V17h-1.2l-3.5-6l-1-2h-0.1c0.1,1,0.1,2,0.1,3V17z
	 M85.6,17h-2.4V7.5h2.4c2.9,0,4.5,1.7,4.5,4.7C90,15.2,88.4,17,85.6,17z M67.9,11.7l-0.5,1.5h2.9l-0.5-1.5c-0.3-1.1-0.7-2.1-1-3.2
	h-0.1C68.5,9.6,68.2,10.6,67.9,11.7z M84.3,8.4V16h1.1c2.3,0,3.4-1.4,3.4-3.8c0-2.4-1.1-3.8-3.4-3.8H84.3z M49.3,12.8
	c1.4-0.9,2.8-2.5,3.7-3.9l0.9,0.3c-0.4,0.6-0.9,1.3-1.4,1.9V18h-1v-5.8c-0.5,0.5-1,1-1.5,1.4C49.9,13.4,49.5,13,49.3,12.8z
	 M40.7,12.2v0.3h3.6V9.7h-3.6V12.2z M54.1,10.5h7.2v0.9h-1.9v5.4c0,0.6-0.2,0.9-0.6,1c-0.5,0.1-1.2,0.1-2.4,0.1
	c-0.1-0.2-0.2-0.6-0.4-0.9c0.9,0,1.8,0,2,0c0.2,0,0.3-0.1,0.3-0.3v-5.3h-4.3V10.5z"/>
<g>
	<defs>
		<rect id="SVGID_1_" width="24" height="24"/>
	</defs>
	<clipPath id="SVGID_2_">
		<use xlink:href="#SVGID_1_"  style="overflow:visible;"/>
	</clipPath>
	<g class="st1">
		<g>
			<defs>
				<rect id="SVGID_3_" width="24" height="24"/>
			</defs>
			<clipPath id="SVGID_4_">
				<use xlink:href="#SVGID_3_"  style="overflow:visible;"/>
			</clipPath>
			<g class="st2">
				<circle id="circle" class="st3" cx="12" cy="12" r="10"/>
				<circle id="circle_1_" class="st4" cx="12" cy="12" r="10"/>
				<path id="polygon" class="st5" d="M17.8,13.1l-1.6,1.6L12,10.5l-4.2,4.2l-1.6-1.6L12,7.3L17.8,13.1z"/>
			</g>
		</g>
	</g>
</g>
</svg>
