<?xml version="1.0" encoding="utf-8"?>
<!-- Generator: Adobe Illustrator 21.1.0, SVG Export Plug-In . SVG Version: 6.00 Build 0)  -->
<svg version="1.1" id="图层_1" xmlns="http://www.w3.org/2000/svg" xmlns:xlink="http://www.w3.org/1999/xlink" x="0px" y="0px"
	 viewBox="0 0 90 24" style="enable-background:new 0 0 90 24;" xml:space="preserve">
<style type="text/css">
	.st0{fill:#1D2129;}
	.st1{clip-path:url(#SVGID_2_);}
	.st2{clip-path:url(#SVGID_4_);}
	.st3{fill:#FFFFFF;}
	.st4{fill:none;stroke:#3F5468;stroke-width:1.5;stroke-linejoin:round;}
	.st5{fill:#9AA9B5;}
</style>
<desc>Created with Pixso.</desc>
<path id="不通过" class="st0" d="M45.8,14c0.2-0.3,0.4-1.6,0.5-5.2h-6.8c-0.7,1-1.5,1.8-2.2,2.5c-0.2-0.2-0.6-0.5-0.8-0.7
	c1.4-1.1,2.7-2.7,3.5-4.5l1,0.3c-0.2,0.5-0.5,1-0.8,1.5h7.2v0.5c-0.1,4.3-0.3,5.8-0.6,6.3c-0.2,0.3-0.5,0.4-0.8,0.4
	c-0.3,0-0.9,0-1.5,0c0-0.3-0.1-0.7-0.2-0.9c0.6,0.1,1.1,0.1,1.3,0.1C45.6,14.2,45.7,14.2,45.8,14z M49.5,10.2c2.4-0.8,4.8-2.3,6-4.1
	l0.9,0.4c-0.1,0.2-0.2,0.3-0.3,0.4c1.2,1.4,3.4,2.7,5.5,3.2c-0.2,0.2-0.5,0.6-0.7,0.9c-2-0.6-4-1.9-5.3-3.4
	c-1.4,1.5-3.3,2.8-5.4,3.5C50,10.8,49.8,10.5,49.5,10.2z M73.8,12.2c0,3.1-1.7,5-4.1,5c-2.4,0-4.1-1.9-4.1-5c0-3.1,1.7-4.9,4.1-4.9
	C72.1,7.3,73.8,9.1,73.8,12.2z M80,12.8l2.4,4.2h-1.4l-2.3-4h-1.7v4h-1.2V7.5h3c1.9,0,3.3,0.7,3.3,2.7C82.2,11.6,81.3,12.5,80,12.8z
	 M66.9,12.2c0,2.4,1.1,3.9,2.8,3.9c1.7,0,2.8-1.5,2.8-3.9c0-2.4-1.1-3.9-2.8-3.9C68,8.3,66.9,9.8,66.9,12.2z M78.7,8.4h-1.6V12h1.6
	c1.5,0,2.3-0.6,2.3-1.8C81,8.9,80.2,8.4,78.7,8.4z M56.2,10.9c-0.4-0.4-1.3-1-2-1.4l0.7-0.5c0.7,0.4,1.5,1,2,1.4L56.2,10.9z
	 M39.5,15.9c0,0.7,0.2,0.9,1.6,0.9h4.9c1.1,0,1.3-0.3,1.4-1.6c0.2,0.2,0.7,0.3,0.9,0.3c-0.2,1.7-0.6,2.2-2.3,2.2h-4.9
	c-2,0-2.6-0.3-2.6-1.8v-5.8h5.3V14h-4.3V15.9z M42.9,13.1V11h-3.4v2.1H42.9z M58.5,11l0.2-0.1l0.7,0.4c-0.6,0.7-1.3,1.5-2,2.3h2.3
	V18h-1v-0.6h-6.3V18h-1v-4.4h4.7c0.5-0.5,1.1-1.2,1.5-1.7h-6.2V11H58.5z M52.3,16.5h6.3v-2.1h-6.3V16.5z"/>
<g>
	<defs>
		<rect id="SVGID_1_" width="24" height="24"/>
	</defs>
	<clipPath id="SVGID_2_">
		<use xlink:href="#SVGID_1_"  style="overflow:visible;"/>
	</clipPath>
	<g class="st1">
		<g>
			<defs>
				<rect id="SVGID_3_" width="24" height="24"/>
			</defs>
			<clipPath id="SVGID_4_">
				<use xlink:href="#SVGID_3_"  style="overflow:visible;"/>
			</clipPath>
			<g class="st2">
				<circle id="circle" class="st3" cx="12" cy="12" r="10"/>
				<circle id="circle_1_" class="st4" cx="12" cy="12" r="10"/>
				<path id="polygon" class="st5" d="M6.2,10.9l1.6-1.6l4.2,4.2l4.2-4.2l1.6,1.6L12,16.7L6.2,10.9z"/>
			</g>
		</g>
	</g>
</g>
</svg>
