<?xml version="1.0" encoding="utf-8"?>
<!-- Generator: Adobe Illustrator 21.1.0, SVG Export Plug-In . SVG Version: 6.00 Build 0)  -->
<svg version="1.1" id="图层_1" xmlns="http://www.w3.org/2000/svg" xmlns:xlink="http://www.w3.org/1999/xlink" x="0px" y="0px"
	 viewBox="0 0 90 24" style="enable-background:new 0 0 90 24;" xml:space="preserve">
<style type="text/css">
	.st0{fill:#1D2129;}
	.st1{clip-path:url(#SVGID_2_);}
	.st2{fill:#FFFFFF;}
	.st3{fill:none;stroke:#3F5468;stroke-width:1.5;stroke-linejoin:round;}
	.st4{fill:#9AA9B5;}
</style>
<desc>Created with Pixso.</desc>
<path id="不通过" class="st0" d="M39.3,12.2l1.4-0.4l0.1,0.9c-0.5,0.1-1,0.3-1.5,0.5v3.6c0,0.5-0.1,0.8-0.4,0.9
	c-0.3,0.2-0.8,0.2-1.6,0.2c0-0.2-0.2-0.6-0.3-0.9c0.5,0,1,0,1.2,0c0.2,0,0.2-0.1,0.2-0.2v-3.4l-1.6,0.5l-0.2-1
	c0.5-0.1,1.1-0.3,1.8-0.5V9.6h-1.6V8.7h1.6V6.1h0.9v2.6h1.4v0.9h-1.4V12.2z M55.1,16c0,0.7,0.2,0.9,1.1,0.9h3.3c0.8,0,0.9-0.4,1-1.9
	c0.2,0.2,0.6,0.3,0.9,0.4c-0.2,1.8-0.5,2.4-1.9,2.4h-3.4c-1.5,0-2-0.4-2-1.8v-4.2l-1.3,0.5l-0.4-0.8l1.6-0.6V7.4h0.9v3L57,9.7V6.1
	H58v3.2l2-0.8l0.1-0.1l0.2-0.1l0.7,0.3l0,0.2c0,2.3,0,4.2-0.2,4.8c-0.1,0.6-0.4,0.8-0.8,0.9c-0.4,0.1-0.9,0.1-1.3,0.1
	c0-0.3-0.1-0.7-0.2-0.9c0.4,0,0.8,0,1,0c0.2,0,0.4-0.1,0.4-0.4c0.1-0.4,0.1-1.7,0.1-3.7l-2,0.8v4.8H57v-4.4l-1.9,0.8V16z M49.3,11.3
	c1.3-1.2,2.5-3.2,3.2-5.2l0.9,0.3c-0.4,0.9-0.8,1.9-1.3,2.7V18h-0.9v-7.3c-0.4,0.6-0.9,1.1-1.3,1.6C49.7,12,49.5,11.5,49.3,11.3z
	 M46.2,13.7h2.3v0.9h-2.3V18h-0.9V6.2h0.9v2.1h2.1v0.9h-2.1V11h2v0.9h-2V13.7z M41.2,8.3h1.9V6.2h0.9V18h-0.9v-3.4H41v-0.9h2.2v-1.8
	h-1.9V11h1.9V9.2h-1.9V8.3z M81,12.2c0,3.1-1.7,5-4.1,5c-2.4,0-4.1-1.9-4.1-5c0-3.1,1.7-4.9,4.1-4.9C79.3,7.3,81,9.1,81,12.2z
	 M66.4,17h-1.3l2.8-4.9l-2.6-4.6h1.3l1.3,2.4c0.2,0.4,0.4,0.8,0.8,1.4h0.1c0.3-0.5,0.4-0.9,0.7-1.4l1.3-2.4H72l-2.6,4.7l2.8,4.9
	h-1.3l-1.4-2.6c-0.2-0.5-0.5-1-0.8-1.5h-0.1c-0.3,0.6-0.5,1.1-0.8,1.5L66.4,17z M87.2,12.8l2.4,4.2h-1.4L86,13h-1.7v4h-1.2V7.5h3
	c1.9,0,3.3,0.7,3.3,2.7C89.4,11.6,88.5,12.5,87.2,12.8z M74.1,12.2c0,2.4,1.1,3.9,2.8,3.9c1.7,0,2.8-1.5,2.8-3.9
	c0-2.4-1.1-3.9-2.8-3.9C75.2,8.3,74.1,9.8,74.1,12.2z M85.9,8.4h-1.6V12h1.6c1.5,0,2.3-0.6,2.3-1.8C88.2,8.9,87.4,8.4,85.9,8.4z"/>
<g>
	<defs>
		<rect id="SVGID_1_" width="24" height="24"/>
	</defs>
	<clipPath id="SVGID_2_">
		<use xlink:href="#SVGID_1_"  style="overflow:visible;"/>
	</clipPath>
	<g class="st1">
		<circle id="circle" class="st2" cx="12" cy="12" r="10"/>
		<circle id="circle_1_" class="st3" cx="12" cy="12" r="10"/>
		
			<rect id="rect" x="10.9" y="6.3" transform="matrix(0.7071 -0.7071 0.7071 0.7071 -4.9558 11.9644)" class="st4" width="2.2" height="11.3"/>
		
			<rect id="rect_1_" x="6.4" y="10.9" transform="matrix(0.7071 -0.7071 0.7071 0.7071 -4.935 12.0146)" class="st4" width="11.3" height="2.2"/>
	</g>
</g>
</svg>
