<?xml version="1.0" encoding="utf-8"?>
<!-- Generator: Adobe Illustrator 21.1.0, SVG Export Plug-In . SVG Version: 6.00 Build 0)  -->
<svg version="1.1" id="图层_1" xmlns="http://www.w3.org/2000/svg" xmlns:xlink="http://www.w3.org/1999/xlink" x="0px" y="0px"
	 viewBox="0 0 90 24" style="enable-background:new 0 0 90 24;" xml:space="preserve">
<style type="text/css">
	.st0{clip-path:url(#SVGID_2_);}
	.st1{fill:#FFFFFF;}
	.st2{fill:#6620FF;}
	.st3{fill:#C5AAFF;}
	.st4{fill:#1D2129;}
</style>
<desc>Created with Pixso.</desc>
<g>
	<g>
		<g>
			<g>
				<g>
					<defs>
						<rect id="SVGID_1_" y="0.1" width="24" height="24"/>
					</defs>
					<clipPath id="SVGID_2_">
						<use xlink:href="#SVGID_1_"  style="overflow:visible;"/>
					</clipPath>
					<g class="st0">
						<g id="path">
							<path class="st1" d="M21,17.1H5c-0.6,0-1-0.5-1-1v-11c0-0.6,0.5-1,1-1h16c0.6,0,1,0.5,1,1v11C22,16.6,21.5,17.1,21,17.1z"/>
						</g>
						<g id="path_1_">
							<path class="st2" d="M21,17.9H5c-1,0-1.8-0.8-1.8-1.8v-11C3.3,4.1,4,3.4,5,3.4h16c1,0,1.8,0.8,1.8,1.8v11
								C22.8,17,21.9,17.9,21,17.9z M5,4.9c-0.1,0-0.2,0-0.2,0.2v11c0,0.1,0.1,0.3,0.3,0.3h16c0.1,0,0.3-0.2,0.3-0.3v-11
								c0-0.1-0.1-0.3-0.3-0.3L5,4.9L5,4.9z"/>
						</g>
						<g id="path_2_">
							<path class="st1" d="M18,20.1H3c-0.6,0-1-0.5-1-1v-11c0-0.6,0.5-1,1-1h15c0.6,0,1,0.5,1,1v11C19,19.6,18.5,20.1,18,20.1z"/>
						</g>
						<g id="path_3_">
							<path class="st2" d="M18,20.9H3c-1,0-1.8-0.8-1.8-1.8v-11C1.3,7.1,2,6.4,3,6.4h15c1,0,1.8,0.8,1.8,1.8v11
								C19.8,20,18.9,20.9,18,20.9z M3,7.9c-0.1,0-0.2,0-0.2,0.2v11c0,0.1,0.1,0.3,0.3,0.3h15c0.1,0,0.3-0.2,0.3-0.3v-11
								c0-0.1-0.1-0.3-0.3-0.3L3,7.9L3,7.9z"/>
						</g>
					</g>
				</g>
			</g>
		</g>
	</g>
	<g>
		<g>
			<g>
				<path class="st3" d="M16,15c0,1.2-1,2.2-2.2,2.2H8.7v-0.1c0.1-0.2,0.1-0.4,0.1-0.6s0-0.4-0.1-0.6v-0.1h5.1
					c0.4,0,0.8-0.4,0.8-0.8c0-0.4-0.4-0.8-0.8-0.8H7.1c-1.2,0-2.2-1-2.2-2.2s1-2.2,2.2-2.2h5v0.1C12,10.1,12,10.3,12,10.5
					s0,0.4,0.1,0.6v0.1h-5c-0.4,0-0.8,0.4-0.8,0.8s0.4,0.8,0.8,0.8h6.6C15,12.8,16,13.8,16,15z"/>
			</g>
		</g>
		<g>
			<g>
				<path class="st3" d="M15.9,10.5c0,0.8-0.7,1.5-1.5,1.5c-0.6,0-1.2-0.4-1.4-0.9c-0.1-0.2-0.1-0.4-0.1-0.6c0-0.2,0-0.4,0.1-0.6
					C13.2,9.4,13.8,9,14.4,9C15.2,9,15.9,9.7,15.9,10.5z"/>
			</g>
		</g>
		<g>
			<g>
				<path class="st3" d="M7.9,16.5c0,0.2,0,0.4-0.1,0.6c-0.2,0.5-0.7,0.8-1.3,0.8c-0.8,0-1.4-0.6-1.4-1.4c-0.1-0.7,0.6-1.4,1.4-1.4
					c0.6,0,1.1,0.3,1.3,0.8C7.8,16.1,7.9,16.3,7.9,16.5z"/>
			</g>
		</g>
	</g>
</g>
<path id="不通过_1_" class="st4" d="M59,8.9c0.8,0.9,1.8,2,2.3,2.8l-0.8,0.5c-0.2-0.3-0.4-0.6-0.6-0.9c-5.3,0.4-5.9,0.4-6.3,0.6
	c0-0.2-0.2-0.7-0.3-0.9c0.3-0.1,0.6-0.1,0.9-0.4c0.3-0.2,1-1.1,1.5-1.8h-2.6v-1h3.7c-0.2-0.4-0.4-1-0.6-1.5l0.9-0.2
	c0.3,0.5,0.6,1.2,0.7,1.7h3.4v0.9h-4.5c-0.5,0.6-1.1,1.4-1.6,2l4.1-0.3c-0.3-0.4-0.7-0.8-1-1.2L59,8.9z M65.5,11.1
	c0.4,0.4,1.3,1.8,1.6,2.2l-0.6,0.8c-0.2-0.4-0.6-1.2-0.9-1.8V18h-0.9v-5.5c-0.4,1.3-1,2.5-1.6,3.2c-0.1-0.3-0.3-0.7-0.5-0.9
	c0.7-0.9,1.5-2.6,2-4.1h-1.7V9.9h1.8V7.8C64.1,7.9,63.6,8,63.2,8c-0.1-0.2-0.2-0.5-0.3-0.8c1.2-0.2,2.6-0.6,3.4-1L66.9,7
	c-0.4,0.2-0.9,0.4-1.5,0.5v2.3H67v0.9h-1.6L65.5,11.1L65.5,11.1z M50.7,6.3c0.8,0.4,1.8,1.1,2.2,1.6l-0.6,0.8
	c-0.5-0.5-1.4-1.2-2.2-1.7L50.7,6.3z M67.7,6.6h6v3.8h-6V6.6z M43,11.9h5.3v1H43v3.9c0,0.6-0.2,1-0.7,1.1C41.9,18,41.1,18,39.8,18
	c-0.1-0.3-0.3-0.7-0.4-1c1.1,0,2,0,2.3,0c0.3,0,0.3,0,0.3-0.3v-3.9h-5.3v-1H42V10c1.1-0.5,2.3-1.3,3.3-2H38V7h8.4h0.2l0.7,0.5
	c-1.1,1.1-2.8,2.3-4.3,3V11.9z M68.6,9.6h4.1V7.4h-4.1V9.6z M50.1,9.9c0.8,0.4,1.9,0.9,2.4,1.3L51.9,12c-0.5-0.4-1.5-1-2.4-1.4
	L50.1,9.9z M71.2,15v1.8h3.2v0.9h-7.5v-0.9h3.4V15h-2.5v-0.9h2.5v-1.7h-2.8v-0.9h6.7v0.9h-2.9v1.7h2.6V15H71.2z M52.4,17.4
	c1.6-1.1,1.7-2.5,1.7-3.7v-1.3H55v1.3c0,1.4-0.2,3.1-2,4.3C53,17.8,52.7,17.5,52.4,17.4z M59.8,17c0,0,0.1,0.1,0.2,0.1h0.4
	c0.1,0,0.2,0,0.3-0.1c0.1,0,0.1-0.2,0.1-0.3c0-0.2,0-0.7,0-1.3c0.2,0.1,0.4,0.3,0.7,0.4c0,0.6,0,1.3-0.1,1.5
	c-0.1,0.2-0.2,0.4-0.3,0.5s-0.4,0.1-0.6,0.1h-0.6c-0.3,0-0.5-0.1-0.7-0.2S59,17.3,59,16.5v-4.1h0.9v4.2C59.7,16.8,59.7,16.9,59.8,17
	z M57.3,17.5h-0.9v-5.1h0.9V17.5z M49.9,17.2c0.7-1,1.7-2.7,2.5-4.2l0.7,0.6c-0.7,1.4-1.6,3-2.3,4.2L49.9,17.2z"/>
</svg>
