<?xml version="1.0" encoding="utf-8"?>
<!-- Generator: Adobe Illustrator 21.1.0, SVG Export Plug-In . SVG Version: 6.00 Build 0)  -->
<svg version="1.1" id="图层_1" xmlns="http://www.w3.org/2000/svg" xmlns:xlink="http://www.w3.org/1999/xlink" x="0px" y="0px"
	 viewBox="0 0 90 24" style="enable-background:new 0 0 90 24;" xml:space="preserve">
<style type="text/css">
	.st0{fill:#1D2129;}
	.st1{clip-path:url(#SVGID_2_);}
	.st2{fill:#FFFFFF;fill-opacity:0;}
	.st3{fill:#FFFFFF;}
	.st4{fill:none;stroke:#3FBCC0;stroke-width:1.5;stroke-linejoin:round;}
	.st5{fill:#94E1E4;}
</style>
<desc>Created with Pixso.</desc>
<path id="不通过" class="st0" d="M47,13.5h1.3v0.8H47v2.3h-1V16h-3.1v0.9c0,0.6-0.2,0.8-0.6,1C42,18,41.3,18,40.2,18
	c0-0.3-0.2-0.6-0.3-0.8c0.6,0,1.3,0,1.6,0c0.1,0,0.1,0,0.2,0c0.3,0,0.3-0.1,0.3-0.3V16h-4.2v-0.7H42v-1h-5.3v-0.8H42v-0.9h-4.1v-0.7
	H42V11h-3.7V8.7H42V8h-5.1V7.2H42v-1h1v1h5.2V8h-5.2v0.8h3.9V11h-3.9v0.9H47V13.5z M49.5,11.3c1.2-1.3,2.4-3.2,3.1-5.2l0.9,0.3
	c-0.4,0.9-0.8,1.9-1.3,2.8V18h-0.9v-7.2c-0.4,0.6-0.8,1.1-1.2,1.5C49.9,12,49.6,11.6,49.5,11.3z M57.8,12.6h3.5v1h-3.5V18h-1v-4.5
	h-3.7v-1h3.7V9.7h-2c-0.3,0.8-0.6,1.4-0.9,2c-0.2-0.1-0.6-0.4-0.8-0.5c0.8-1.1,1.3-2.8,1.6-4.4L55.5,7c-0.1,0.6-0.3,1.2-0.4,1.8h1.7
	V6.3h1v2.5h3v0.9h-3V12.6z M39.2,9.4v0.9H42V9.4H39.2z M45.8,10.3V9.4h-2.9v0.9H45.8z M46.1,12.6h-3.1v0.9h3.1V12.6z M42.9,15.3h3.1
	v-1h-3.1V15.3z"/>
<g>
	<defs>
		<rect id="SVGID_1_" width="24" height="24"/>
	</defs>
	<clipPath id="SVGID_2_">
		<use xlink:href="#SVGID_1_"  style="overflow:visible;"/>
	</clipPath>
	<g class="st1">
		<rect id="鐭_x2541_舰_x5F_1142_x5F_1_x5F_" x="0" y="0" class="st2" width="24" height="24"/>
		<path id="polygon" class="st3" d="M18.6,20H5.4L1,12l4.4-8h13.2l4.4,8L18.6,20z"/>
		<path id="polygon_1_" class="st4" d="M5.4,20L1,12l4.4-8h13.2l4.4,8l-4.4,8H5.4z"/>
		<path id="path" class="st5" d="M13.1,8.9L12.9,8h-5v9h0.9v-3.6h3.3l0.2,0.9H16V8.9H13.1z"/>
	</g>
</g>
</svg>
