<?xml version="1.0" encoding="utf-8"?>
<!-- Generator: Adobe Illustrator 21.1.0, SVG Export Plug-In . SVG Version: 6.00 Build 0)  -->
<svg version="1.1" id="图层_1" xmlns="http://www.w3.org/2000/svg" xmlns:xlink="http://www.w3.org/1999/xlink" x="0px" y="0px"
	 viewBox="0 0 90 24" style="enable-background:new 0 0 90 24;" xml:space="preserve">
<style type="text/css">
	.st0{fill:#1D2129;}
	.st1{clip-path:url(#SVGID_2_);}
	.st2{fill-opacity:0;}
	.st3{fill:#FFFFFF;}
	.st4{fill:none;stroke:#0084FF;stroke-width:1.5;stroke-linejoin:round;}
	.st5{fill:#B3DAFF;}
</style>
<desc>Created with Pixso.</desc>
<path id="不通过" class="st0" d="M48.4,9.9v0.9h-3.6V13h2.7v5h-0.9v-0.5H42V18h-0.9v-5h2.8v-2.1h-3.7V9.9h3.7V7.8
	C43,7.9,42,8.1,41,8.1c0-0.2-0.2-0.6-0.3-0.8c2.2-0.2,4.8-0.6,6.3-1.1l0.8,0.8c-0.8,0.3-1.9,0.5-3,0.7v2.3H48.4z M37.8,6.3
	c0.8,0.4,1.9,1,2.4,1.3l-0.6,0.8C39.1,8,38,7.4,37.2,7L37.8,6.3z M58.4,6.3c0,0.9,0,1.9,0,2.8h2.9c0,0,0,0.3,0,0.5
	c-0.2,5.3-0.3,7.1-0.8,7.7c-0.3,0.3-0.5,0.4-0.9,0.5c-0.4,0-1.1,0-1.8,0c0-0.3-0.1-0.7-0.3-1c0.7,0.1,1.4,0.1,1.7,0.1
	c0.2,0,0.4,0,0.5-0.2c0.3-0.4,0.5-2.1,0.7-6.7h-1.9c-0.2,3.2-0.7,6.1-2.6,7.9c-0.2-0.2-0.5-0.6-0.8-0.7c1.8-1.6,2.3-4.3,2.4-7.3
	h-1.8V9.1h1.8c0-0.9,0-1.8,0-2.8H58.4z M50.2,7.2h5v0.9h-5V7.2z M37.1,9.8c0.8,0.4,1.8,1,2.4,1.3L39,11.9c-0.5-0.4-1.6-1-2.4-1.4
	L37.1,9.8z M54.3,12.3c0.5,1.2,1.1,2.7,1.3,3.6l-0.9,0.3c-0.1-0.2-0.1-0.5-0.2-0.8c-3.6,0.8-4.1,0.9-4.4,1.1v-0.1c0,0,0,0,0,0
	c0-0.2-0.2-0.6-0.3-0.9c0.2-0.1,0.4-0.4,0.6-0.9c0.2-0.4,0.7-2,1-3.5h-1.8v-0.9h5.7v0.9h-2.9c-0.3,1.4-0.8,2.8-1.3,4l3.1-0.7
	c-0.2-0.7-0.5-1.4-0.8-2L54.3,12.3z M40,13.6c-0.7,1.4-1.6,3-2.3,4.2l-0.8-0.6c0.7-1,1.7-2.7,2.5-4.1L40,13.6z M42,16.5h4.6v-2.7H42
	V16.5z"/>
<g>
	<defs>
		<rect id="SVGID_1_" width="24" height="24"/>
	</defs>
	<clipPath id="SVGID_2_">
		<use xlink:href="#SVGID_1_"  style="overflow:visible;"/>
	</clipPath>
	<g class="st1">
		<rect id="鐭_x2541_舰_x5F_1142_x5F_1_x5F_" x="0" y="0" class="st2" width="24" height="24"/>
		<path id="path" class="st3" d="M20.9,19H3.1C2.5,19,2,18.5,2,17.9V6.1C2,5.5,2.5,5,3.1,5h17.7C21.5,5,22,5.5,22,6.1v11.7
			C22,18.5,21.5,19,20.9,19z"/>
		<path id="path_1_" class="st4" d="M3.1,19C2.5,19,2,18.5,2,17.9V6.1C2,5.5,2.5,5,3.1,5h17.7C21.5,5,22,5.5,22,6.1v11.7
			c0,0.7-0.5,1.2-1.1,1.2H3.1z"/>
		<ellipse id="椭圆_103" class="st5" cx="12" cy="9" rx="2" ry="2"/>
		<path id="矩形_7916" class="st5" d="M9.5,12h5.1c1.4,0,2.5,1.1,2.5,2.5l0,0c0,1.4-1.1,2.5-2.5,2.5H9.5c-1.4,0-2.5-1.1-2.5-2.5
			l0,0C7,13.1,8.1,12,9.5,12z"/>
	</g>
</g>
</svg>
